%TF.GenerationSoftware,KiCad,Pcbnew,10.0.4*%
%TF.CreationDate,2026-09-08T14:26:10+03:00*%
%TF.ProjectId,ESP32_Clock,45535033-325f-4436-9c6f-636b2e6b6963,rev?*%
%TF.SameCoordinates,Original*%
%TF.FileFunction,Soldermask,Top*%
%TF.FilePolarity,Negative*%
%FSLAX46Y46*%
G04 Gerber Fmt 4.6, Leading zero omitted, Abs format (unit mm)*
G04 Created by KiCad (PCBNEW 10.0.4) date 2026-09-08 14:26:10*
%MOMM*%
%LPD*%
G01*
G04 APERTURE LIST*
G04 Aperture macros list*
%AMRoundRect*
0 Rectangle with rounded corners*
0 $1 Rounding radius*
0 $2 $3 $4 $5 $6 $7 $8 $9 X,Y pos of 4 corners*
0 Add a 4 corners polygon primitive as box body*
4,1,4,$2,$3,$4,$5,$6,$7,$8,$9,$2,$3,0*
0 Add four circle primitives for the rounded corners*
1,1,$1+$1,$2,$3*
1,1,$1+$1,$4,$5*
1,1,$1+$1,$6,$7*
1,1,$1+$1,$8,$9*
0 Add four rect primitives between the rounded corners*
20,1,$1+$1,$2,$3,$4,$5,0*
20,1,$1+$1,$4,$5,$6,$7,0*
20,1,$1+$1,$6,$7,$8,$9,0*
20,1,$1+$1,$8,$9,$2,$3,0*%
G04 Aperture macros list end*
%ADD10RoundRect,0.102000X-0.762000X1.512500X-0.762000X-1.512500X0.762000X-1.512500X0.762000X1.512500X0*%
%ADD11O,0.600000X2.000000*%
%ADD12R,1.100000X1.400000*%
%ADD13R,1.100000X0.650000*%
%ADD14R,1.750000X1.750000*%
%ADD15C,1.750000*%
%ADD16R,1.200000X1.400000*%
%ADD17RoundRect,0.102000X-1.250000X1.250000X-1.250000X-1.250000X1.250000X-1.250000X1.250000X1.250000X0*%
%ADD18C,2.704000*%
%ADD19R,2.000000X2.000000*%
%ADD20R,1.700000X1.150000*%
%ADD21C,5.500000*%
G04 APERTURE END LIST*
D10*
%TO.C,U1*%
X140720000Y-118720000D03*
X143260000Y-118720000D03*
X145800000Y-118720000D03*
X148340000Y-118720000D03*
X153420000Y-118720000D03*
X150880000Y-118720000D03*
X158500000Y-102750000D03*
X158500000Y-118720000D03*
X155960000Y-102750000D03*
X153420000Y-102750000D03*
X150880000Y-102750000D03*
X148340000Y-102750000D03*
X145800000Y-102750000D03*
X143260000Y-102750000D03*
X140720000Y-102750000D03*
X155960000Y-118720000D03*
%TD*%
D11*
%TO.C,U2*%
X140805000Y-98320000D03*
X142075000Y-98320000D03*
X143345000Y-98320000D03*
X144615000Y-98320000D03*
X145885000Y-98320000D03*
X147155000Y-98320000D03*
X148425000Y-98320000D03*
X149695000Y-98320000D03*
X149695000Y-89053000D03*
X148425000Y-89053000D03*
X147155000Y-89053000D03*
X145885000Y-89053000D03*
X144615000Y-89053000D03*
X143345000Y-89053000D03*
X142075000Y-89053000D03*
X140805000Y-89053000D03*
%TD*%
D12*
%TO.C,R9*%
X129375000Y-114750000D03*
X127625000Y-114750000D03*
%TD*%
%TO.C,R8*%
X138125000Y-91250000D03*
X136375000Y-91250000D03*
%TD*%
%TO.C,R7*%
X138125000Y-89000000D03*
X136375000Y-89000000D03*
%TD*%
%TO.C,R6*%
X138125000Y-86750000D03*
X136375000Y-86750000D03*
%TD*%
%TO.C,R1*%
X129375000Y-112500000D03*
X127625000Y-112500000D03*
%TD*%
D13*
%TO.C,Q2*%
X129750000Y-118300000D03*
X129750000Y-120200000D03*
X132250000Y-119250000D03*
%TD*%
D14*
%TO.C,H1*%
X150080000Y-126250000D03*
D15*
X147540000Y-126250000D03*
X145000000Y-126250000D03*
X142460000Y-126300000D03*
X139920000Y-126300000D03*
X137380000Y-126300000D03*
X134840000Y-126300000D03*
%TD*%
D16*
%TO.C,C7*%
X136400000Y-94750000D03*
X138100000Y-94750000D03*
%TD*%
%TO.C,C6*%
X145100000Y-86500000D03*
X143400000Y-86500000D03*
%TD*%
D17*
%TO.C,BZ1*%
X132250000Y-107280000D03*
D18*
X132250000Y-114880000D03*
%TD*%
D19*
%TO.C,BH1*%
X156790000Y-97970000D03*
X136790000Y-97970000D03*
%TD*%
D20*
%TO.C,R2*%
X134125000Y-104125000D03*
X134125000Y-101325000D03*
%TD*%
D21*
%TO.C,REF\u002A\u002A*%
X128000000Y-130000000D03*
%TD*%
%TO.C,REF\u002A\u002A*%
X157000000Y-130000000D03*
%TD*%
%TO.C,REF\u002A\u002A*%
X157000000Y-86000000D03*
%TD*%
%TO.C,REF\u002A\u002A*%
X128000000Y-86000000D03*
%TD*%
M02*
