%TF.GenerationSoftware,KiCad,Pcbnew,10.0.4*%
%TF.CreationDate,2026-09-08T14:26:10+03:00*%
%TF.ProjectId,ESP32_Clock,45535033-325f-4436-9c6f-636b2e6b6963,rev?*%
%TF.SameCoordinates,Original*%
%TF.FileFunction,Paste,Top*%
%TF.FilePolarity,Positive*%
%FSLAX46Y46*%
G04 Gerber Fmt 4.6, Leading zero omitted, Abs format (unit mm)*
G04 Created by KiCad (PCBNEW 10.0.4) date 2026-09-08 14:26:10*
%MOMM*%
%LPD*%
G01*
G04 APERTURE LIST*
%ADD10R,1.524000X3.025000*%
%ADD11O,0.600000X2.000000*%
%ADD12R,1.100000X1.400000*%
%ADD13R,1.100000X0.650000*%
%ADD14R,1.200000X1.400000*%
%ADD15R,1.700000X1.150000*%
G04 APERTURE END LIST*
D10*
%TO.C,U1*%
X140720000Y-118720000D03*
X143260000Y-118720000D03*
X145800000Y-118720000D03*
X148340000Y-118720000D03*
X153420000Y-118720000D03*
X150880000Y-118720000D03*
X158500000Y-102750000D03*
X158500000Y-118720000D03*
X155960000Y-102750000D03*
X153420000Y-102750000D03*
X150880000Y-102750000D03*
X148340000Y-102750000D03*
X145800000Y-102750000D03*
X143260000Y-102750000D03*
X140720000Y-102750000D03*
X155960000Y-118720000D03*
%TD*%
D11*
%TO.C,U2*%
X140805000Y-98320000D03*
X142075000Y-98320000D03*
X143345000Y-98320000D03*
X144615000Y-98320000D03*
X145885000Y-98320000D03*
X147155000Y-98320000D03*
X148425000Y-98320000D03*
X149695000Y-98320000D03*
X149695000Y-89053000D03*
X148425000Y-89053000D03*
X147155000Y-89053000D03*
X145885000Y-89053000D03*
X144615000Y-89053000D03*
X143345000Y-89053000D03*
X142075000Y-89053000D03*
X140805000Y-89053000D03*
%TD*%
D12*
%TO.C,R9*%
X129375000Y-114750000D03*
X127625000Y-114750000D03*
%TD*%
%TO.C,R8*%
X138125000Y-91250000D03*
X136375000Y-91250000D03*
%TD*%
%TO.C,R7*%
X138125000Y-89000000D03*
X136375000Y-89000000D03*
%TD*%
%TO.C,R6*%
X138125000Y-86750000D03*
X136375000Y-86750000D03*
%TD*%
%TO.C,R1*%
X129375000Y-112500000D03*
X127625000Y-112500000D03*
%TD*%
D13*
%TO.C,Q2*%
X129750000Y-118300000D03*
X129750000Y-120200000D03*
X132250000Y-119250000D03*
%TD*%
D14*
%TO.C,C7*%
X136400000Y-94750000D03*
X138100000Y-94750000D03*
%TD*%
%TO.C,C6*%
X145100000Y-86500000D03*
X143400000Y-86500000D03*
%TD*%
D15*
%TO.C,R2*%
X134125000Y-104125000D03*
X134125000Y-101325000D03*
%TD*%
M02*
