%TF.GenerationSoftware,KiCad,Pcbnew,10.0.4*%
%TF.CreationDate,2026-09-08T14:26:10+03:00*%
%TF.ProjectId,ESP32_Clock,45535033-325f-4436-9c6f-636b2e6b6963,rev?*%
%TF.SameCoordinates,Original*%
%TF.FileFunction,Copper,L1,Top*%
%TF.FilePolarity,Positive*%
%FSLAX46Y46*%
G04 Gerber Fmt 4.6, Leading zero omitted, Abs format (unit mm)*
G04 Created by KiCad (PCBNEW 10.0.4) date 2026-09-08 14:26:10*
%MOMM*%
%LPD*%
G01*
G04 APERTURE LIST*
%TA.AperFunction,SMDPad,CuDef*%
%ADD10R,1.524000X3.025000*%
%TD*%
%TA.AperFunction,SMDPad,CuDef*%
%ADD11O,0.600000X2.000000*%
%TD*%
%TA.AperFunction,SMDPad,CuDef*%
%ADD12R,1.100000X1.400000*%
%TD*%
%TA.AperFunction,SMDPad,CuDef*%
%ADD13R,1.100000X0.650000*%
%TD*%
%TA.AperFunction,ComponentPad*%
%ADD14R,1.750000X1.750000*%
%TD*%
%TA.AperFunction,ComponentPad*%
%ADD15C,1.750000*%
%TD*%
%TA.AperFunction,SMDPad,CuDef*%
%ADD16R,1.200000X1.400000*%
%TD*%
%TA.AperFunction,ComponentPad*%
%ADD17R,2.500000X2.500000*%
%TD*%
%TA.AperFunction,ComponentPad*%
%ADD18C,2.500000*%
%TD*%
%TA.AperFunction,ComponentPad*%
%ADD19R,2.000000X2.000000*%
%TD*%
%TA.AperFunction,SMDPad,CuDef*%
%ADD20R,1.700000X1.150000*%
%TD*%
%TA.AperFunction,ComponentPad*%
%ADD21C,5.500000*%
%TD*%
%TA.AperFunction,Conductor*%
%ADD22C,0.500000*%
%TD*%
G04 APERTURE END LIST*
D10*
%TO.P,U1,0,GPIO0_0*%
%TO.N,/SR_CLK*%
X140720000Y-118720000D03*
%TO.P,U1,1,GPIO1_1*%
%TO.N,/SR_OE*%
X143260000Y-118720000D03*
%TO.P,U1,2,GPIO2_2*%
%TO.N,/LED*%
X145800000Y-118720000D03*
%TO.P,U1,3,GPIO3_3*%
%TO.N,/SR_LATCH*%
X148340000Y-118720000D03*
%TO.P,U1,3.3,3V3_3.3*%
%TO.N,+3.3V_ESP*%
X153420000Y-118720000D03*
%TO.P,U1,4,GPIO4_4*%
%TO.N,/SR_DATA*%
X150880000Y-118720000D03*
%TO.P,U1,5,GPIO5_5*%
%TO.N,unconnected-(U1-GPIO5-Pad5)*%
X158500000Y-102750000D03*
%TO.P,U1,5V,5V_5V*%
%TO.N,+5V*%
X158500000Y-118720000D03*
%TO.P,U1,6,GPIO6_6*%
%TO.N,unconnected-(U1-GPIO6-Pad6)*%
X155960000Y-102750000D03*
%TO.P,U1,7,GPIO7_7*%
%TO.N,unconnected-(U1-GPIO7-Pad7)*%
X153420000Y-102750000D03*
%TO.P,U1,8,GPIO8_8*%
%TO.N,/MCU_SDA*%
X150880000Y-102750000D03*
%TO.P,U1,9,GPIO9_9*%
%TO.N,/MCU_SCL*%
X148340000Y-102750000D03*
%TO.P,U1,10,GPIO10_10*%
%TO.N,unconnected-(U1-GPIO10-Pad10)*%
X145800000Y-102750000D03*
%TO.P,U1,20,GPIO20_20*%
%TO.N,/MCU_INT*%
X143260000Y-102750000D03*
%TO.P,U1,21,GPIO21_21*%
%TO.N,/BUZZER*%
X140720000Y-102750000D03*
%TO.P,U1,G,GND_G*%
%TO.N,GND*%
X155960000Y-118720000D03*
%TD*%
D11*
%TO.P,U2,1,32kHz_1*%
%TO.N,unconnected-(U2-32kHz-Pad1)*%
X140805000Y-98320000D03*
%TO.P,U2,2,Vcc_2*%
%TO.N,+3.3V*%
X142075000Y-98320000D03*
%TO.P,U2,3,INT_3*%
%TO.N,/MCU_INT*%
X143345000Y-98320000D03*
%TO.P,U2,4,RST_4*%
%TO.N,unconnected-(U2-RST-Pad4)*%
X144615000Y-98320000D03*
%TO.P,U2,5,NC_5*%
%TO.N,unconnected-(U2-NC-Pad5)*%
X145885000Y-98320000D03*
%TO.P,U2,6,NC_6*%
%TO.N,unconnected-(U2-NC-Pad6)*%
X147155000Y-98320000D03*
%TO.P,U2,7,NC_7*%
%TO.N,unconnected-(U2-NC-Pad7)*%
X148425000Y-98320000D03*
%TO.P,U2,8,NC_8*%
%TO.N,unconnected-(U2-NC-Pad8)*%
X149695000Y-98320000D03*
%TO.P,U2,9,NC_9*%
%TO.N,unconnected-(U2-NC-Pad9)*%
X149695000Y-89053000D03*
%TO.P,U2,10,NC_10*%
%TO.N,unconnected-(U2-NC-Pad10)*%
X148425000Y-89053000D03*
%TO.P,U2,11,NC_11*%
%TO.N,unconnected-(U2-NC-Pad11)*%
X147155000Y-89053000D03*
%TO.P,U2,12,NC_12*%
%TO.N,unconnected-(U2-NC-Pad12)*%
X145885000Y-89053000D03*
%TO.P,U2,13,GND_13*%
%TO.N,GND*%
X144615000Y-89053000D03*
%TO.P,U2,14,VBAT_14*%
%TO.N,VBAT*%
X143345000Y-89053000D03*
%TO.P,U2,15,SDA_15*%
%TO.N,/MCU_SDA*%
X142075000Y-89053000D03*
%TO.P,U2,16,SCL_16*%
%TO.N,/MCU_SCL*%
X140805000Y-89053000D03*
%TD*%
D12*
%TO.P,R9,1,1_1*%
%TO.N,GND*%
X129375000Y-114750000D03*
%TO.P,R9,2,2_2*%
%TO.N,Net-(Q2-Base)*%
X127625000Y-114750000D03*
%TD*%
%TO.P,R8,1,1_1*%
%TO.N,/MCU_INT*%
X138125000Y-91250000D03*
%TO.P,R8,2,2_2*%
%TO.N,+3.3V*%
X136375000Y-91250000D03*
%TD*%
%TO.P,R7,1,1_1*%
%TO.N,/MCU_SCL*%
X138125000Y-89000000D03*
%TO.P,R7,2,2_2*%
%TO.N,+3.3V*%
X136375000Y-89000000D03*
%TD*%
%TO.P,R6,1,1_1*%
%TO.N,/MCU_SDA*%
X138125000Y-86750000D03*
%TO.P,R6,2,2_2*%
%TO.N,+3.3V*%
X136375000Y-86750000D03*
%TD*%
%TO.P,R1,1,1_1*%
%TO.N,/BUZZER*%
X129375000Y-112500000D03*
%TO.P,R1,2,2_2*%
%TO.N,Net-(Q2-Base)*%
X127625000Y-112500000D03*
%TD*%
D13*
%TO.P,Q2,1,Base_1*%
%TO.N,Net-(Q2-Base)*%
X129750000Y-118300000D03*
%TO.P,Q2,2,Emiter_2*%
%TO.N,GND*%
X129750000Y-120200000D03*
%TO.P,Q2,3,Collector_3*%
%TO.N,Net-(BZ1--)*%
X132250000Y-119250000D03*
%TD*%
D14*
%TO.P,H1,1,1_1*%
%TO.N,+5V*%
X150080000Y-126250000D03*
D15*
%TO.P,H1,2,2_2*%
%TO.N,GND*%
X147540000Y-126250000D03*
%TO.P,H1,3,3_3*%
%TO.N,/SR_DATA*%
X145000000Y-126250000D03*
%TO.P,H1,4,4_4*%
%TO.N,/SR_LATCH*%
X142460000Y-126300000D03*
%TO.P,H1,5,5_5*%
%TO.N,/LED*%
X139920000Y-126300000D03*
%TO.P,H1,6,6_6*%
%TO.N,/SR_OE*%
X137380000Y-126300000D03*
%TO.P,H1,7,7_7*%
%TO.N,/SR_CLK*%
X134840000Y-126300000D03*
%TD*%
D16*
%TO.P,C7,1,1_1*%
%TO.N,GND*%
X136400000Y-94750000D03*
%TO.P,C7,2,2_2*%
%TO.N,+3.3V*%
X138100000Y-94750000D03*
%TD*%
%TO.P,C6,1,1_1*%
%TO.N,GND*%
X145100000Y-86500000D03*
%TO.P,C6,2,2_2*%
%TO.N,VBAT*%
X143400000Y-86500000D03*
%TD*%
D17*
%TO.P,BZ1,1,+_1*%
%TO.N,+5V*%
X132250000Y-107280000D03*
D18*
%TO.P,BZ1,2,-_2*%
%TO.N,Net-(BZ1--)*%
X132250000Y-114880000D03*
%TD*%
D19*
%TO.P,BH1,1,1_1*%
%TO.N,GND*%
X156790000Y-97970000D03*
%TO.P,BH1,2,2_2*%
%TO.N,VBAT*%
X136790000Y-97970000D03*
%TD*%
D20*
%TO.P,R2,1,1_1*%
%TO.N,+3.3V_ESP*%
X134125000Y-104125000D03*
%TO.P,R2,2,2_2*%
%TO.N,+3.3V*%
X134125000Y-101325000D03*
%TD*%
D21*
%TO.P,REF\u002A\u002A,*%
%TO.N,*%
X128000000Y-130000000D03*
%TD*%
%TO.P,REF\u002A\u002A,*%
%TO.N,*%
X157000000Y-130000000D03*
%TD*%
%TO.P,REF\u002A\u002A,*%
%TO.N,*%
X157000000Y-86000000D03*
%TD*%
%TO.P,REF\u002A\u002A,*%
%TO.N,*%
X128000000Y-86000000D03*
%TD*%
%TO.N,+3.3V*%
D22*
X137675000Y-101325000D02*
X134125000Y-101325000D01*
X139000000Y-96250000D02*
X139000000Y-100000000D01*
X139000000Y-100000000D02*
X137675000Y-101325000D01*
X138100000Y-94750000D02*
X138100000Y-95350000D01*
X138100000Y-95350000D02*
X139000000Y-96250000D01*
%TO.N,/BUZZER*%
X130750000Y-102750000D02*
X140720000Y-102750000D01*
X128250000Y-105250000D02*
X130750000Y-102750000D01*
X128250000Y-109500000D02*
X128250000Y-105250000D01*
X129375000Y-110625000D02*
X128250000Y-109500000D01*
X129375000Y-112500000D02*
X129375000Y-110625000D01*
%TO.N,+3.3V_ESP*%
X129250000Y-109000000D02*
X129250000Y-105750000D01*
X130250000Y-110000000D02*
X129250000Y-109000000D01*
X130875000Y-104125000D02*
X134125000Y-104125000D01*
X151750000Y-110000000D02*
X130250000Y-110000000D01*
X153420000Y-111670000D02*
X151750000Y-110000000D01*
X153420000Y-118720000D02*
X153420000Y-111670000D01*
X129250000Y-105750000D02*
X130875000Y-104125000D01*
%TO.N,/SR_OE*%
X143260000Y-120490000D02*
X143260000Y-118720000D01*
X140750000Y-121250000D02*
X142500000Y-121250000D01*
X137380000Y-124620000D02*
X140750000Y-121250000D01*
X142500000Y-121250000D02*
X143260000Y-120490000D01*
X137380000Y-126300000D02*
X137380000Y-124620000D01*
%TO.N,/LED*%
X144000000Y-122250000D02*
X145800000Y-120450000D01*
X142250000Y-122250000D02*
X144000000Y-122250000D01*
X139920000Y-124580000D02*
X142250000Y-122250000D01*
X139920000Y-126300000D02*
X139920000Y-124580000D01*
X145800000Y-120450000D02*
X145800000Y-118720000D01*
%TO.N,/SR_DATA*%
X150880000Y-120370000D02*
X150880000Y-118720000D01*
X147000000Y-124250000D02*
X150880000Y-120370000D01*
X145437500Y-124250000D02*
X147000000Y-124250000D01*
X145000000Y-126250000D02*
X145000000Y-124687500D01*
X145000000Y-124687500D02*
X145437500Y-124250000D01*
%TO.N,/SR_LATCH*%
X148340000Y-120410000D02*
X148340000Y-118720000D01*
X145500000Y-123250000D02*
X148340000Y-120410000D01*
X142460000Y-124665000D02*
X143875000Y-123250000D01*
X142460000Y-126300000D02*
X142460000Y-124665000D01*
X143875000Y-123250000D02*
X145500000Y-123250000D01*
%TO.N,/SR_CLK*%
X134840000Y-121660000D02*
X137780000Y-118720000D01*
X137780000Y-118720000D02*
X140720000Y-118720000D01*
X134840000Y-126300000D02*
X134840000Y-121660000D01*
%TO.N,+5V*%
X158500000Y-122250000D02*
X158500000Y-118720000D01*
X154500000Y-126250000D02*
X158500000Y-122250000D01*
X150330000Y-126250000D02*
X154500000Y-126250000D01*
%TO.N,VBAT*%
X134250000Y-85000000D02*
X142750000Y-85000000D01*
X142750000Y-85000000D02*
X143345000Y-85595000D01*
X133250000Y-96750000D02*
X133250000Y-86000000D01*
X136790000Y-97970000D02*
X134470000Y-97970000D01*
X143345000Y-85595000D02*
X143345000Y-89053000D01*
X133250000Y-86000000D02*
X134250000Y-85000000D01*
X134470000Y-97970000D02*
X133250000Y-96750000D01*
%TO.N,+3.3V*%
X140750000Y-94750000D02*
X138100000Y-94750000D01*
X136375000Y-91250000D02*
X136375000Y-86750000D01*
X142075000Y-96075000D02*
X140750000Y-94750000D01*
X142075000Y-98320000D02*
X142075000Y-96075000D01*
X136375000Y-92125000D02*
X136375000Y-91250000D01*
X138100000Y-93850000D02*
X136375000Y-92125000D01*
X138100000Y-94750000D02*
X138100000Y-93850000D01*
%TO.N,/MCU_INT*%
X139000000Y-91250000D02*
X138125000Y-91250000D01*
X143345000Y-102665000D02*
X143260000Y-102750000D01*
X143345000Y-95595000D02*
X139000000Y-91250000D01*
X143345000Y-98320000D02*
X143345000Y-102665000D01*
X143345000Y-95595000D02*
X143345000Y-98320000D01*
%TO.N,/MCU_SDA*%
X152500000Y-94250000D02*
X149750000Y-91500000D01*
X149750000Y-91500000D02*
X142750000Y-91500000D01*
X138125000Y-86750000D02*
X141750000Y-86750000D01*
X141750000Y-86750000D02*
X142075000Y-87075000D01*
X142750000Y-91500000D02*
X142000000Y-90750000D01*
X150880000Y-102750000D02*
X150880000Y-100870000D01*
X142000000Y-89128000D02*
X142075000Y-89053000D01*
X142075000Y-87075000D02*
X142075000Y-89053000D01*
X142000000Y-90750000D02*
X142000000Y-89128000D01*
X150880000Y-100870000D02*
X152500000Y-99250000D01*
X152500000Y-99250000D02*
X152500000Y-94250000D01*
%TO.N,/MCU_SCL*%
X140805000Y-91305000D02*
X142000000Y-92500000D01*
X140805000Y-89053000D02*
X140805000Y-91305000D01*
X149500000Y-92500000D02*
X142000000Y-92500000D01*
X148340000Y-102750000D02*
X148340000Y-101160000D01*
X151500000Y-94500000D02*
X149500000Y-92500000D01*
X150250000Y-100250000D02*
X151500000Y-99000000D01*
X149250000Y-100250000D02*
X150250000Y-100250000D01*
X140752000Y-89000000D02*
X140805000Y-89053000D01*
X138125000Y-89000000D02*
X140752000Y-89000000D01*
X148340000Y-101160000D02*
X149250000Y-100250000D01*
X151500000Y-99000000D02*
X151500000Y-94500000D01*
%TO.N,Net-(Q2-Base)*%
X128500000Y-118000000D02*
X128800000Y-118300000D01*
X128800000Y-118300000D02*
X129750000Y-118300000D01*
X127625000Y-112500000D02*
X127625000Y-117125000D01*
X127625000Y-117125000D02*
X128500000Y-118000000D01*
%TO.N,Net-(BZ1--)*%
X132250000Y-119250000D02*
X132250000Y-114880000D01*
%TO.N,+5V*%
X158500000Y-111000000D02*
X158500000Y-118720000D01*
X132250000Y-107280000D02*
X154780000Y-107280000D01*
X154780000Y-107280000D02*
X158500000Y-111000000D01*
%TD*%
%TA.AperFunction,Conductor*%
%TO.N,GND*%
G36*
X154217374Y-83206738D02*
G01*
X154239463Y-83208318D01*
X154250246Y-83216390D01*
X154263168Y-83220185D01*
X154277667Y-83236918D01*
X154295396Y-83250190D01*
X154300103Y-83262810D01*
X154308923Y-83272989D01*
X154312074Y-83294906D01*
X154319813Y-83315654D01*
X154316950Y-83328814D01*
X154318867Y-83342147D01*
X154309667Y-83362290D01*
X154304961Y-83383927D01*
X154291692Y-83401652D01*
X154289842Y-83405703D01*
X154283810Y-83412181D01*
X154217715Y-83478275D01*
X153983941Y-83763129D01*
X153983931Y-83763143D01*
X153779213Y-84069525D01*
X153779202Y-84069543D01*
X153605502Y-84394513D01*
X153605500Y-84394518D01*
X153464480Y-84734969D01*
X153357507Y-85087613D01*
X153357504Y-85087624D01*
X153285618Y-85449024D01*
X153266137Y-85646827D01*
X153249500Y-85815750D01*
X153249500Y-86184250D01*
X153258912Y-86279815D01*
X153285618Y-86550975D01*
X153357504Y-86912375D01*
X153357507Y-86912386D01*
X153464480Y-87265030D01*
X153605500Y-87605481D01*
X153605502Y-87605486D01*
X153779202Y-87930456D01*
X153779213Y-87930474D01*
X153983931Y-88236856D01*
X153983941Y-88236870D01*
X154217715Y-88521724D01*
X154478275Y-88782284D01*
X154478280Y-88782288D01*
X154478281Y-88782289D01*
X154763135Y-89016063D01*
X155069532Y-89220791D01*
X155069541Y-89220796D01*
X155069543Y-89220797D01*
X155394513Y-89394497D01*
X155394515Y-89394497D01*
X155394521Y-89394501D01*
X155734971Y-89535520D01*
X156087604Y-89642490D01*
X156087610Y-89642491D01*
X156087613Y-89642492D01*
X156087624Y-89642495D01*
X156449024Y-89714381D01*
X156815750Y-89750500D01*
X156815753Y-89750500D01*
X157184247Y-89750500D01*
X157184250Y-89750500D01*
X157550976Y-89714381D01*
X157621331Y-89700386D01*
X157912375Y-89642495D01*
X157912386Y-89642492D01*
X157912386Y-89642491D01*
X157912396Y-89642490D01*
X158265029Y-89535520D01*
X158605479Y-89394501D01*
X158930468Y-89220791D01*
X159236865Y-89016063D01*
X159521719Y-88782289D01*
X159521724Y-88782284D01*
X159587819Y-88716190D01*
X159649142Y-88682705D01*
X159718834Y-88687689D01*
X159774767Y-88729561D01*
X159799184Y-88795025D01*
X159799500Y-88803871D01*
X159799500Y-127196129D01*
X159779815Y-127263168D01*
X159727011Y-127308923D01*
X159657853Y-127318867D01*
X159594297Y-127289842D01*
X159587819Y-127283810D01*
X159521724Y-127217715D01*
X159236870Y-126983941D01*
X159236869Y-126983940D01*
X159236865Y-126983937D01*
X158930468Y-126779209D01*
X158930463Y-126779206D01*
X158930456Y-126779202D01*
X158605486Y-126605502D01*
X158605481Y-126605500D01*
X158265030Y-126464480D01*
X157912386Y-126357507D01*
X157912375Y-126357504D01*
X157550975Y-126285618D01*
X157274772Y-126258415D01*
X157184250Y-126249500D01*
X156815750Y-126249500D01*
X156732109Y-126257737D01*
X156449024Y-126285618D01*
X156087624Y-126357504D01*
X156087613Y-126357507D01*
X155734969Y-126464480D01*
X155394518Y-126605500D01*
X155394513Y-126605502D01*
X155069543Y-126779202D01*
X155069525Y-126779213D01*
X154763143Y-126983931D01*
X154763129Y-126983941D01*
X154478275Y-127217715D01*
X154217715Y-127478275D01*
X153983941Y-127763129D01*
X153983931Y-127763143D01*
X153779213Y-128069525D01*
X153779202Y-128069543D01*
X153605502Y-128394513D01*
X153605500Y-128394518D01*
X153464480Y-128734969D01*
X153357507Y-129087613D01*
X153357504Y-129087624D01*
X153285618Y-129449024D01*
X153249500Y-129815753D01*
X153249500Y-130184246D01*
X153285618Y-130550975D01*
X153357504Y-130912375D01*
X153357507Y-130912386D01*
X153464480Y-131265030D01*
X153605500Y-131605481D01*
X153605502Y-131605486D01*
X153779202Y-131930456D01*
X153779213Y-131930474D01*
X153983931Y-132236856D01*
X153983941Y-132236870D01*
X154217715Y-132521724D01*
X154283810Y-132587819D01*
X154317295Y-132649142D01*
X154312311Y-132718834D01*
X154270439Y-132774767D01*
X154204975Y-132799184D01*
X154196129Y-132799500D01*
X130803871Y-132799500D01*
X130736832Y-132779815D01*
X130691077Y-132727011D01*
X130681133Y-132657853D01*
X130710158Y-132594297D01*
X130716190Y-132587819D01*
X130782284Y-132521724D01*
X130782289Y-132521719D01*
X131016063Y-132236865D01*
X131220791Y-131930468D01*
X131394501Y-131605479D01*
X131535520Y-131265029D01*
X131642490Y-130912396D01*
X131642492Y-130912386D01*
X131642495Y-130912375D01*
X131714381Y-130550975D01*
X131750500Y-130184246D01*
X131750500Y-129815753D01*
X131714381Y-129449024D01*
X131642495Y-129087624D01*
X131642492Y-129087613D01*
X131642491Y-129087610D01*
X131642490Y-129087604D01*
X131535520Y-128734971D01*
X131394501Y-128394521D01*
X131220791Y-128069532D01*
X131016063Y-127763135D01*
X130782289Y-127478281D01*
X130782288Y-127478280D01*
X130782284Y-127478275D01*
X130521724Y-127217715D01*
X130236870Y-126983941D01*
X130236869Y-126983940D01*
X130236865Y-126983937D01*
X129930468Y-126779209D01*
X129930463Y-126779206D01*
X129930456Y-126779202D01*
X129605486Y-126605502D01*
X129605481Y-126605500D01*
X129265030Y-126464480D01*
X128912386Y-126357507D01*
X128912375Y-126357504D01*
X128784660Y-126332101D01*
X128550975Y-126285618D01*
X128274772Y-126258415D01*
X128184250Y-126249500D01*
X127815750Y-126249500D01*
X127732109Y-126257737D01*
X127449024Y-126285618D01*
X127087624Y-126357504D01*
X127087613Y-126357507D01*
X126734969Y-126464480D01*
X126394518Y-126605500D01*
X126394513Y-126605502D01*
X126069543Y-126779202D01*
X126069525Y-126779213D01*
X125763143Y-126983931D01*
X125763129Y-126983941D01*
X125478275Y-127217715D01*
X125412181Y-127283810D01*
X125350858Y-127317295D01*
X125281166Y-127312311D01*
X125225233Y-127270439D01*
X125200816Y-127204975D01*
X125200500Y-127196129D01*
X125200500Y-126215350D01*
X133764500Y-126215350D01*
X133764500Y-126384649D01*
X133790981Y-126551847D01*
X133843296Y-126712853D01*
X133920152Y-126863688D01*
X134019648Y-127000634D01*
X134019652Y-127000639D01*
X134139360Y-127120347D01*
X134139365Y-127120351D01*
X134243666Y-127196129D01*
X134276315Y-127219850D01*
X134361331Y-127263168D01*
X134427146Y-127296703D01*
X134427148Y-127296703D01*
X134427151Y-127296705D01*
X134513450Y-127324745D01*
X134588152Y-127349018D01*
X134755351Y-127375500D01*
X134755356Y-127375500D01*
X134924649Y-127375500D01*
X135091847Y-127349018D01*
X135252849Y-127296705D01*
X135403685Y-127219850D01*
X135540641Y-127120346D01*
X135660346Y-127000641D01*
X135759850Y-126863685D01*
X135836705Y-126712849D01*
X135889018Y-126551847D01*
X135896937Y-126501847D01*
X135915500Y-126384649D01*
X135915500Y-126215350D01*
X136304500Y-126215350D01*
X136304500Y-126384649D01*
X136330981Y-126551847D01*
X136383296Y-126712853D01*
X136460152Y-126863688D01*
X136559648Y-127000634D01*
X136559652Y-127000639D01*
X136679360Y-127120347D01*
X136679365Y-127120351D01*
X136783666Y-127196129D01*
X136816315Y-127219850D01*
X136901331Y-127263168D01*
X136967146Y-127296703D01*
X136967148Y-127296703D01*
X136967151Y-127296705D01*
X137053450Y-127324745D01*
X137128152Y-127349018D01*
X137295351Y-127375500D01*
X137295356Y-127375500D01*
X137464649Y-127375500D01*
X137631847Y-127349018D01*
X137792849Y-127296705D01*
X137943685Y-127219850D01*
X138080641Y-127120346D01*
X138200346Y-127000641D01*
X138299850Y-126863685D01*
X138376705Y-126712849D01*
X138429018Y-126551847D01*
X138436937Y-126501847D01*
X138455500Y-126384649D01*
X138455500Y-126215350D01*
X138429018Y-126048152D01*
X138376703Y-125887146D01*
X138322014Y-125779815D01*
X138299850Y-125736315D01*
X138263520Y-125686311D01*
X138200351Y-125599365D01*
X138200347Y-125599360D01*
X138080639Y-125479652D01*
X138080634Y-125479648D01*
X137943686Y-125380150D01*
X137898204Y-125356975D01*
X137847408Y-125309000D01*
X137830500Y-125246491D01*
X137830500Y-124857965D01*
X137850185Y-124790926D01*
X137866819Y-124770284D01*
X140900285Y-121736819D01*
X140961608Y-121703334D01*
X140987966Y-121700500D01*
X141863034Y-121700500D01*
X141930073Y-121720185D01*
X141975828Y-121772989D01*
X141985772Y-121842147D01*
X141956747Y-121905703D01*
X141950715Y-121912181D01*
X139559513Y-124303383D01*
X139559509Y-124303389D01*
X139500201Y-124406112D01*
X139500200Y-124406117D01*
X139469500Y-124520691D01*
X139469500Y-125246491D01*
X139449815Y-125313530D01*
X139401796Y-125356975D01*
X139356313Y-125380150D01*
X139219365Y-125479648D01*
X139219360Y-125479652D01*
X139099652Y-125599360D01*
X139099648Y-125599365D01*
X139000152Y-125736311D01*
X138923296Y-125887146D01*
X138870981Y-126048152D01*
X138844500Y-126215350D01*
X138844500Y-126384649D01*
X138870981Y-126551847D01*
X138923296Y-126712853D01*
X139000152Y-126863688D01*
X139099648Y-127000634D01*
X139099652Y-127000639D01*
X139219360Y-127120347D01*
X139219365Y-127120351D01*
X139323666Y-127196129D01*
X139356315Y-127219850D01*
X139441331Y-127263168D01*
X139507146Y-127296703D01*
X139507148Y-127296703D01*
X139507151Y-127296705D01*
X139593450Y-127324745D01*
X139668152Y-127349018D01*
X139835351Y-127375500D01*
X139835356Y-127375500D01*
X140004649Y-127375500D01*
X140171847Y-127349018D01*
X140332849Y-127296705D01*
X140483685Y-127219850D01*
X140620641Y-127120346D01*
X140740346Y-127000641D01*
X140839850Y-126863685D01*
X140916705Y-126712849D01*
X140969018Y-126551847D01*
X140976937Y-126501847D01*
X140995500Y-126384649D01*
X140995500Y-126215350D01*
X140969018Y-126048152D01*
X140916703Y-125887146D01*
X140862014Y-125779815D01*
X140839850Y-125736315D01*
X140803520Y-125686311D01*
X140740351Y-125599365D01*
X140740347Y-125599360D01*
X140620639Y-125479652D01*
X140620634Y-125479648D01*
X140483686Y-125380150D01*
X140438204Y-125356975D01*
X140387408Y-125309000D01*
X140370500Y-125246491D01*
X140370500Y-124817965D01*
X140390185Y-124750926D01*
X140406819Y-124730284D01*
X142400285Y-122736819D01*
X142461608Y-122703334D01*
X142487966Y-122700500D01*
X143488035Y-122700500D01*
X143555074Y-122720185D01*
X143600829Y-122772989D01*
X143610773Y-122842147D01*
X143581748Y-122905703D01*
X143575716Y-122912181D01*
X142099513Y-124388383D01*
X142099509Y-124388389D01*
X142040201Y-124491112D01*
X142040200Y-124491117D01*
X142009500Y-124605691D01*
X142009500Y-125246491D01*
X141989815Y-125313530D01*
X141941796Y-125356975D01*
X141896313Y-125380150D01*
X141759365Y-125479648D01*
X141759360Y-125479652D01*
X141639652Y-125599360D01*
X141639648Y-125599365D01*
X141540152Y-125736311D01*
X141463296Y-125887146D01*
X141410981Y-126048152D01*
X141384500Y-126215350D01*
X141384500Y-126384649D01*
X141410981Y-126551847D01*
X141463296Y-126712853D01*
X141540152Y-126863688D01*
X141639648Y-127000634D01*
X141639652Y-127000639D01*
X141759360Y-127120347D01*
X141759365Y-127120351D01*
X141863666Y-127196129D01*
X141896315Y-127219850D01*
X141981331Y-127263168D01*
X142047146Y-127296703D01*
X142047148Y-127296703D01*
X142047151Y-127296705D01*
X142133450Y-127324745D01*
X142208152Y-127349018D01*
X142375351Y-127375500D01*
X142375356Y-127375500D01*
X142544649Y-127375500D01*
X142711847Y-127349018D01*
X142872849Y-127296705D01*
X143023685Y-127219850D01*
X143160641Y-127120346D01*
X143280346Y-127000641D01*
X143379850Y-126863685D01*
X143456705Y-126712849D01*
X143509018Y-126551847D01*
X143516937Y-126501847D01*
X143535500Y-126384649D01*
X143535500Y-126215350D01*
X143509018Y-126048152D01*
X143456703Y-125887146D01*
X143402014Y-125779815D01*
X143379850Y-125736315D01*
X143343520Y-125686311D01*
X143280351Y-125599365D01*
X143280347Y-125599360D01*
X143160639Y-125479652D01*
X143160634Y-125479648D01*
X143023686Y-125380150D01*
X142978204Y-125356975D01*
X142927408Y-125309000D01*
X142910500Y-125246491D01*
X142910500Y-124902965D01*
X142930185Y-124835926D01*
X142946819Y-124815284D01*
X144025284Y-123736819D01*
X144086607Y-123703334D01*
X144112965Y-123700500D01*
X145050535Y-123700500D01*
X145117574Y-123720185D01*
X145163329Y-123772989D01*
X145173273Y-123842147D01*
X145144248Y-123905703D01*
X145138216Y-123912181D01*
X144639513Y-124410883D01*
X144639509Y-124410889D01*
X144580201Y-124513612D01*
X144580200Y-124513617D01*
X144549500Y-124628191D01*
X144549500Y-125196491D01*
X144529815Y-125263530D01*
X144481796Y-125306975D01*
X144436313Y-125330150D01*
X144299365Y-125429648D01*
X144299360Y-125429652D01*
X144179652Y-125549360D01*
X144179648Y-125549365D01*
X144080152Y-125686311D01*
X144003296Y-125837146D01*
X143950981Y-125998152D01*
X143924500Y-126165350D01*
X143924500Y-126334649D01*
X143950981Y-126501847D01*
X144003296Y-126662853D01*
X144080152Y-126813688D01*
X144179648Y-126950634D01*
X144179652Y-126950639D01*
X144299360Y-127070347D01*
X144299365Y-127070351D01*
X144368185Y-127120351D01*
X144436315Y-127169850D01*
X144530247Y-127217711D01*
X144587146Y-127246703D01*
X144587148Y-127246703D01*
X144587151Y-127246705D01*
X144673450Y-127274745D01*
X144748152Y-127299018D01*
X144915351Y-127325500D01*
X144915356Y-127325500D01*
X145084649Y-127325500D01*
X145251847Y-127299018D01*
X145258972Y-127296703D01*
X145412849Y-127246705D01*
X145563685Y-127169850D01*
X145700641Y-127070346D01*
X145820346Y-126950641D01*
X145919850Y-126813685D01*
X145996705Y-126662849D01*
X146049018Y-126501847D01*
X146054936Y-126464480D01*
X146075500Y-126334649D01*
X146075500Y-126165350D01*
X146049018Y-125998152D01*
X145996703Y-125837146D01*
X145945324Y-125736311D01*
X145919850Y-125686315D01*
X145907137Y-125668817D01*
X145820351Y-125549365D01*
X145820347Y-125549360D01*
X145700639Y-125429652D01*
X145700634Y-125429648D01*
X145563686Y-125330150D01*
X145518204Y-125306975D01*
X145467408Y-125259000D01*
X145450500Y-125196491D01*
X145450500Y-124925465D01*
X145459144Y-124896024D01*
X145465668Y-124866038D01*
X145469422Y-124861022D01*
X145470185Y-124858426D01*
X145486819Y-124837784D01*
X145587784Y-124736819D01*
X145649107Y-124703334D01*
X145675465Y-124700500D01*
X147059308Y-124700500D01*
X147059309Y-124700500D01*
X147149673Y-124676286D01*
X147173887Y-124669799D01*
X147276614Y-124610489D01*
X151240490Y-120646614D01*
X151299799Y-120543886D01*
X151304884Y-120524905D01*
X151341249Y-120465246D01*
X151404096Y-120434717D01*
X151424659Y-120433000D01*
X151661750Y-120433000D01*
X151661751Y-120432999D01*
X151686121Y-120428152D01*
X151720229Y-120421368D01*
X151720229Y-120421367D01*
X151720231Y-120421367D01*
X151786552Y-120377052D01*
X151830867Y-120310731D01*
X151830867Y-120310729D01*
X151830868Y-120310729D01*
X151842499Y-120252252D01*
X151842500Y-120252250D01*
X151842500Y-117187749D01*
X151842499Y-117187747D01*
X151830868Y-117129270D01*
X151830867Y-117129269D01*
X151786552Y-117062947D01*
X151720230Y-117018632D01*
X151720229Y-117018631D01*
X151661752Y-117007000D01*
X151661748Y-117007000D01*
X150098252Y-117007000D01*
X150098247Y-117007000D01*
X150039770Y-117018631D01*
X150039769Y-117018632D01*
X149973447Y-117062947D01*
X149929132Y-117129269D01*
X149929131Y-117129270D01*
X149917500Y-117187747D01*
X149917500Y-120252252D01*
X149929131Y-120310729D01*
X149929132Y-120310730D01*
X149973447Y-120377052D01*
X150005112Y-120398210D01*
X150049917Y-120451823D01*
X150058624Y-120521148D01*
X150028469Y-120584175D01*
X150023902Y-120588993D01*
X146849716Y-123763181D01*
X146788393Y-123796666D01*
X146762035Y-123799500D01*
X145886965Y-123799500D01*
X145819926Y-123779815D01*
X145774171Y-123727011D01*
X145764227Y-123657853D01*
X145793252Y-123594297D01*
X145799284Y-123587819D01*
X147077795Y-122309308D01*
X148700490Y-120686613D01*
X148759799Y-120583886D01*
X148775602Y-120524905D01*
X148811967Y-120465246D01*
X148874814Y-120434717D01*
X148895377Y-120433000D01*
X149121750Y-120433000D01*
X149121751Y-120432999D01*
X149146121Y-120428152D01*
X149180229Y-120421368D01*
X149180229Y-120421367D01*
X149180231Y-120421367D01*
X149246552Y-120377052D01*
X149290867Y-120310731D01*
X149290867Y-120310729D01*
X149290868Y-120310729D01*
X149302499Y-120252252D01*
X149302500Y-120252250D01*
X149302500Y-117187749D01*
X149302499Y-117187747D01*
X149290868Y-117129270D01*
X149290867Y-117129269D01*
X149246552Y-117062947D01*
X149180230Y-117018632D01*
X149180229Y-117018631D01*
X149121752Y-117007000D01*
X149121748Y-117007000D01*
X147558252Y-117007000D01*
X147558247Y-117007000D01*
X147499770Y-117018631D01*
X147499769Y-117018632D01*
X147433447Y-117062947D01*
X147389132Y-117129269D01*
X147389131Y-117129270D01*
X147377500Y-117187747D01*
X147377500Y-120252252D01*
X147389131Y-120310729D01*
X147389132Y-120310730D01*
X147433447Y-120377052D01*
X147489091Y-120414232D01*
X147533896Y-120467844D01*
X147542603Y-120537169D01*
X147512448Y-120600197D01*
X147507881Y-120605015D01*
X145349716Y-122763181D01*
X145288393Y-122796666D01*
X145262035Y-122799500D01*
X144386965Y-122799500D01*
X144319926Y-122779815D01*
X144274171Y-122727011D01*
X144264227Y-122657853D01*
X144293252Y-122594297D01*
X144299284Y-122587819D01*
X145229250Y-121657853D01*
X146160489Y-120726614D01*
X146219798Y-120623887D01*
X146219799Y-120623886D01*
X146247221Y-120521542D01*
X146248311Y-120518234D01*
X146266238Y-120492228D01*
X146282685Y-120465246D01*
X146285924Y-120463672D01*
X146287967Y-120460709D01*
X146317109Y-120448523D01*
X146345531Y-120434717D01*
X146351275Y-120434237D01*
X146352429Y-120433755D01*
X146353911Y-120434017D01*
X146366095Y-120433000D01*
X146581750Y-120433000D01*
X146581751Y-120432999D01*
X146606121Y-120428152D01*
X146640229Y-120421368D01*
X146640229Y-120421367D01*
X146640231Y-120421367D01*
X146706552Y-120377052D01*
X146750867Y-120310731D01*
X146750867Y-120310729D01*
X146750868Y-120310729D01*
X146762499Y-120252252D01*
X146762500Y-120252250D01*
X146762500Y-117187749D01*
X146762499Y-117187747D01*
X146750868Y-117129270D01*
X146750867Y-117129269D01*
X146706552Y-117062947D01*
X146640230Y-117018632D01*
X146640229Y-117018631D01*
X146581752Y-117007000D01*
X146581748Y-117007000D01*
X145018252Y-117007000D01*
X145018247Y-117007000D01*
X144959770Y-117018631D01*
X144959769Y-117018632D01*
X144893447Y-117062947D01*
X144849132Y-117129269D01*
X144849131Y-117129270D01*
X144837500Y-117187747D01*
X144837500Y-120252252D01*
X144849131Y-120310729D01*
X144849132Y-120310730D01*
X144893447Y-120377052D01*
X144969923Y-120428152D01*
X144968027Y-120430988D01*
X145006597Y-120462068D01*
X145028664Y-120528361D01*
X145011387Y-120596061D01*
X144992424Y-120620472D01*
X143849716Y-121763181D01*
X143788393Y-121796666D01*
X143762035Y-121799500D01*
X142886965Y-121799500D01*
X142819926Y-121779815D01*
X142774171Y-121727011D01*
X142764227Y-121657853D01*
X142793252Y-121594297D01*
X142799284Y-121587819D01*
X143003720Y-121383383D01*
X143620489Y-120766614D01*
X143679798Y-120663887D01*
X143679799Y-120663886D01*
X143710500Y-120549309D01*
X143710500Y-120538619D01*
X143715832Y-120521029D01*
X143725311Y-120506557D01*
X143730185Y-120489961D01*
X143744056Y-120477941D01*
X143754117Y-120462583D01*
X143769916Y-120455533D01*
X143782989Y-120444206D01*
X143807020Y-120438978D01*
X143817924Y-120434113D01*
X143824657Y-120435141D01*
X143834500Y-120433000D01*
X144041750Y-120433000D01*
X144041751Y-120432999D01*
X144066121Y-120428152D01*
X144100229Y-120421368D01*
X144100229Y-120421367D01*
X144100231Y-120421367D01*
X144166552Y-120377052D01*
X144210867Y-120310731D01*
X144210867Y-120310729D01*
X144210868Y-120310729D01*
X144222499Y-120252252D01*
X144222500Y-120252250D01*
X144222500Y-117187749D01*
X144222499Y-117187747D01*
X144210868Y-117129270D01*
X144210867Y-117129269D01*
X144166552Y-117062947D01*
X144100230Y-117018632D01*
X144100229Y-117018631D01*
X144041752Y-117007000D01*
X144041748Y-117007000D01*
X142478252Y-117007000D01*
X142478247Y-117007000D01*
X142419770Y-117018631D01*
X142419769Y-117018632D01*
X142353447Y-117062947D01*
X142309132Y-117129269D01*
X142309131Y-117129270D01*
X142297500Y-117187747D01*
X142297500Y-120252252D01*
X142309131Y-120310729D01*
X142309132Y-120310730D01*
X142353447Y-120377052D01*
X142419769Y-120421367D01*
X142431054Y-120426042D01*
X142431018Y-120426128D01*
X142438053Y-120426632D01*
X142458353Y-120441828D01*
X142480821Y-120453581D01*
X142485849Y-120462411D01*
X142493987Y-120468503D01*
X142502849Y-120492263D01*
X142515396Y-120514296D01*
X142514852Y-120524444D01*
X142518404Y-120533967D01*
X142513014Y-120558744D01*
X142511657Y-120584066D01*
X142505316Y-120594128D01*
X142503552Y-120602240D01*
X142482402Y-120630495D01*
X142349714Y-120763182D01*
X142288394Y-120796666D01*
X142262035Y-120799500D01*
X140690691Y-120799500D01*
X140600325Y-120823713D01*
X140600324Y-120823712D01*
X140576115Y-120830200D01*
X140576106Y-120830204D01*
X140473392Y-120889505D01*
X140473384Y-120889511D01*
X137019513Y-124343383D01*
X137019509Y-124343389D01*
X136960201Y-124446112D01*
X136960200Y-124446117D01*
X136929500Y-124560691D01*
X136929500Y-125246491D01*
X136909815Y-125313530D01*
X136861796Y-125356975D01*
X136816313Y-125380150D01*
X136679365Y-125479648D01*
X136679360Y-125479652D01*
X136559652Y-125599360D01*
X136559648Y-125599365D01*
X136460152Y-125736311D01*
X136383296Y-125887146D01*
X136330981Y-126048152D01*
X136304500Y-126215350D01*
X135915500Y-126215350D01*
X135889018Y-126048152D01*
X135836703Y-125887146D01*
X135782014Y-125779815D01*
X135759850Y-125736315D01*
X135723520Y-125686311D01*
X135660351Y-125599365D01*
X135660347Y-125599360D01*
X135540639Y-125479652D01*
X135540634Y-125479648D01*
X135403686Y-125380150D01*
X135358204Y-125356975D01*
X135307408Y-125309000D01*
X135290500Y-125246491D01*
X135290500Y-121897965D01*
X135310185Y-121830926D01*
X135326819Y-121810284D01*
X137930284Y-119206819D01*
X137991607Y-119173334D01*
X138017965Y-119170500D01*
X139633500Y-119170500D01*
X139700539Y-119190185D01*
X139746294Y-119242989D01*
X139757500Y-119294500D01*
X139757500Y-120252252D01*
X139769131Y-120310729D01*
X139769132Y-120310730D01*
X139813447Y-120377052D01*
X139879769Y-120421367D01*
X139879770Y-120421368D01*
X139938247Y-120432999D01*
X139938250Y-120433000D01*
X139938252Y-120433000D01*
X141501750Y-120433000D01*
X141501751Y-120432999D01*
X141526121Y-120428152D01*
X141560229Y-120421368D01*
X141560229Y-120421367D01*
X141560231Y-120421367D01*
X141626552Y-120377052D01*
X141670867Y-120310731D01*
X141670867Y-120310729D01*
X141670868Y-120310729D01*
X141682499Y-120252252D01*
X141682500Y-120252250D01*
X141682500Y-117187749D01*
X141682499Y-117187747D01*
X141670868Y-117129270D01*
X141670867Y-117129269D01*
X141626552Y-117062947D01*
X141560230Y-117018632D01*
X141560229Y-117018631D01*
X141501752Y-117007000D01*
X141501748Y-117007000D01*
X139938252Y-117007000D01*
X139938247Y-117007000D01*
X139879770Y-117018631D01*
X139879769Y-117018632D01*
X139813447Y-117062947D01*
X139769132Y-117129269D01*
X139769131Y-117129270D01*
X139757500Y-117187747D01*
X139757500Y-118145500D01*
X139737815Y-118212539D01*
X139685011Y-118258294D01*
X139633500Y-118269500D01*
X137720691Y-118269500D01*
X137630325Y-118293713D01*
X137630324Y-118293712D01*
X137606116Y-118300199D01*
X137606113Y-118300200D01*
X137503386Y-118359511D01*
X137503383Y-118359513D01*
X134479513Y-121383383D01*
X134479509Y-121383389D01*
X134420201Y-121486112D01*
X134420200Y-121486117D01*
X134389500Y-121600691D01*
X134389500Y-125246491D01*
X134369815Y-125313530D01*
X134321796Y-125356975D01*
X134276313Y-125380150D01*
X134139365Y-125479648D01*
X134139360Y-125479652D01*
X134019652Y-125599360D01*
X134019648Y-125599365D01*
X133920152Y-125736311D01*
X133843296Y-125887146D01*
X133790981Y-126048152D01*
X133764500Y-126215350D01*
X125200500Y-126215350D01*
X125200500Y-111780247D01*
X126874500Y-111780247D01*
X126874500Y-113219752D01*
X126886131Y-113278229D01*
X126886132Y-113278230D01*
X126930447Y-113344552D01*
X126996769Y-113388867D01*
X126996770Y-113388868D01*
X127054852Y-113400420D01*
X127055252Y-113400500D01*
X127055257Y-113400500D01*
X127061312Y-113401097D01*
X127061147Y-113402768D01*
X127068147Y-113401762D01*
X127092187Y-113412740D01*
X127117539Y-113420185D01*
X127123466Y-113427025D01*
X127131703Y-113430787D01*
X127145992Y-113453021D01*
X127163294Y-113472989D01*
X127165581Y-113483503D01*
X127169477Y-113489565D01*
X127174500Y-113524500D01*
X127174500Y-113725500D01*
X127154815Y-113792539D01*
X127102011Y-113838294D01*
X127061142Y-113847184D01*
X127061312Y-113848903D01*
X127055247Y-113849500D01*
X126996770Y-113861131D01*
X126996769Y-113861132D01*
X126930447Y-113905447D01*
X126886132Y-113971769D01*
X126886131Y-113971770D01*
X126874500Y-114030247D01*
X126874500Y-115469752D01*
X126886131Y-115528229D01*
X126886132Y-115528230D01*
X126930447Y-115594552D01*
X126996769Y-115638867D01*
X126996770Y-115638868D01*
X127054852Y-115650420D01*
X127055252Y-115650500D01*
X127055257Y-115650500D01*
X127061312Y-115651097D01*
X127061065Y-115653602D01*
X127117539Y-115670185D01*
X127163294Y-115722989D01*
X127174500Y-115774500D01*
X127174500Y-117184308D01*
X127198712Y-117274672D01*
X127205200Y-117298885D01*
X127205200Y-117298886D01*
X127205201Y-117298887D01*
X127264511Y-117401614D01*
X128139511Y-118276614D01*
X128523386Y-118660489D01*
X128626113Y-118719799D01*
X128643653Y-118724498D01*
X128643656Y-118724500D01*
X128643657Y-118724500D01*
X128664162Y-118729994D01*
X128740691Y-118750500D01*
X128989319Y-118750500D01*
X129056358Y-118770185D01*
X129058210Y-118771398D01*
X129121769Y-118813867D01*
X129121770Y-118813868D01*
X129180247Y-118825499D01*
X129180250Y-118825500D01*
X129180252Y-118825500D01*
X130319750Y-118825500D01*
X130319751Y-118825499D01*
X130334568Y-118822552D01*
X130378229Y-118813868D01*
X130378229Y-118813867D01*
X130378231Y-118813867D01*
X130444552Y-118769552D01*
X130488867Y-118703231D01*
X130488867Y-118703229D01*
X130488868Y-118703229D01*
X130500499Y-118644752D01*
X130500500Y-118644750D01*
X130500500Y-117955249D01*
X130500499Y-117955247D01*
X130488868Y-117896770D01*
X130488867Y-117896769D01*
X130444552Y-117830447D01*
X130378230Y-117786132D01*
X130378229Y-117786131D01*
X130319752Y-117774500D01*
X130319748Y-117774500D01*
X129180252Y-117774500D01*
X129180247Y-117774500D01*
X129121770Y-117786131D01*
X129121769Y-117786132D01*
X129087371Y-117809117D01*
X129020694Y-117829995D01*
X128953314Y-117811511D01*
X128930799Y-117793696D01*
X128111819Y-116974716D01*
X128078334Y-116913393D01*
X128075500Y-116887035D01*
X128075500Y-115774500D01*
X128095185Y-115707461D01*
X128147989Y-115661706D01*
X128188857Y-115652815D01*
X128188688Y-115651097D01*
X128194742Y-115650500D01*
X128194748Y-115650500D01*
X128209568Y-115647552D01*
X128253229Y-115638868D01*
X128253229Y-115638867D01*
X128253231Y-115638867D01*
X128319552Y-115594552D01*
X128363867Y-115528231D01*
X128363867Y-115528229D01*
X128363868Y-115528229D01*
X128375499Y-115469752D01*
X128375500Y-115469750D01*
X128375500Y-114765837D01*
X130799500Y-114765837D01*
X130799500Y-114994162D01*
X130835215Y-115219660D01*
X130905770Y-115436803D01*
X130986148Y-115594552D01*
X131009421Y-115640228D01*
X131143621Y-115824937D01*
X131305063Y-115986379D01*
X131489772Y-116120579D01*
X131587681Y-116170466D01*
X131693198Y-116224230D01*
X131693200Y-116224230D01*
X131693201Y-116224231D01*
X131713816Y-116230929D01*
X131771490Y-116270362D01*
X131798691Y-116334720D01*
X131799500Y-116348860D01*
X131799500Y-118600500D01*
X131779815Y-118667539D01*
X131727011Y-118713294D01*
X131686142Y-118722184D01*
X131686312Y-118723903D01*
X131680247Y-118724500D01*
X131621770Y-118736131D01*
X131621769Y-118736132D01*
X131555447Y-118780447D01*
X131511132Y-118846769D01*
X131511131Y-118846770D01*
X131499500Y-118905247D01*
X131499500Y-119594752D01*
X131511131Y-119653229D01*
X131511132Y-119653230D01*
X131555447Y-119719552D01*
X131621769Y-119763867D01*
X131621770Y-119763868D01*
X131680247Y-119775499D01*
X131680250Y-119775500D01*
X131680252Y-119775500D01*
X132819750Y-119775500D01*
X132819751Y-119775499D01*
X132834568Y-119772552D01*
X132878229Y-119763868D01*
X132878229Y-119763867D01*
X132878231Y-119763867D01*
X132944552Y-119719552D01*
X132988867Y-119653231D01*
X132988867Y-119653229D01*
X132988868Y-119653229D01*
X133000499Y-119594752D01*
X133000500Y-119594750D01*
X133000500Y-118905249D01*
X133000499Y-118905247D01*
X132988868Y-118846770D01*
X132988867Y-118846769D01*
X132944552Y-118780447D01*
X132878230Y-118736132D01*
X132878229Y-118736131D01*
X132819752Y-118724500D01*
X132813688Y-118723903D01*
X132813934Y-118721397D01*
X132757461Y-118704815D01*
X132711706Y-118652011D01*
X132700500Y-118600500D01*
X132700500Y-116348860D01*
X132720185Y-116281821D01*
X132772989Y-116236066D01*
X132786169Y-116230933D01*
X132806799Y-116224231D01*
X133010228Y-116120579D01*
X133194937Y-115986379D01*
X133356379Y-115824937D01*
X133490579Y-115640228D01*
X133594231Y-115436799D01*
X133664784Y-115219660D01*
X133700500Y-114994162D01*
X133700500Y-114765837D01*
X133664784Y-114540339D01*
X133594229Y-114323196D01*
X133490578Y-114119771D01*
X133425536Y-114030249D01*
X133356379Y-113935063D01*
X133194937Y-113773621D01*
X133010228Y-113639421D01*
X132806803Y-113535770D01*
X132589660Y-113465215D01*
X132364162Y-113429500D01*
X132364157Y-113429500D01*
X132135843Y-113429500D01*
X132135838Y-113429500D01*
X131910339Y-113465215D01*
X131693196Y-113535770D01*
X131489771Y-113639421D01*
X131305061Y-113773622D01*
X131143622Y-113935061D01*
X131009421Y-114119771D01*
X130905770Y-114323196D01*
X130835215Y-114540339D01*
X130799500Y-114765837D01*
X128375500Y-114765837D01*
X128375500Y-114030249D01*
X128375499Y-114030247D01*
X128363868Y-113971770D01*
X128363867Y-113971769D01*
X128319552Y-113905447D01*
X128253230Y-113861132D01*
X128253229Y-113861131D01*
X128194752Y-113849500D01*
X128188688Y-113848903D01*
X128188852Y-113847231D01*
X128181853Y-113848238D01*
X128157812Y-113837259D01*
X128132461Y-113829815D01*
X128126533Y-113822974D01*
X128118297Y-113819213D01*
X128104007Y-113796978D01*
X128086706Y-113777011D01*
X128084418Y-113766496D01*
X128080523Y-113760435D01*
X128075500Y-113725500D01*
X128075500Y-113524500D01*
X128095185Y-113457461D01*
X128147989Y-113411706D01*
X128188857Y-113402815D01*
X128188688Y-113401097D01*
X128194742Y-113400500D01*
X128194748Y-113400500D01*
X128209568Y-113397552D01*
X128253229Y-113388868D01*
X128253229Y-113388867D01*
X128253231Y-113388867D01*
X128319552Y-113344552D01*
X128363867Y-113278231D01*
X128363867Y-113278229D01*
X128363868Y-113278229D01*
X128375499Y-113219752D01*
X128375500Y-113219750D01*
X128375500Y-111780249D01*
X128375499Y-111780247D01*
X128363868Y-111721770D01*
X128363867Y-111721769D01*
X128319552Y-111655447D01*
X128253230Y-111611132D01*
X128253229Y-111611131D01*
X128194752Y-111599500D01*
X128194748Y-111599500D01*
X127055252Y-111599500D01*
X127055247Y-111599500D01*
X126996770Y-111611131D01*
X126996769Y-111611132D01*
X126930447Y-111655447D01*
X126886132Y-111721769D01*
X126886131Y-111721770D01*
X126874500Y-111780247D01*
X125200500Y-111780247D01*
X125200500Y-105190691D01*
X127799500Y-105190691D01*
X127799500Y-109559309D01*
X127803360Y-109573712D01*
X127820990Y-109639510D01*
X127830201Y-109673888D01*
X127859856Y-109725250D01*
X127889511Y-109776614D01*
X127889513Y-109776616D01*
X128888181Y-110775284D01*
X128921666Y-110836607D01*
X128924500Y-110862965D01*
X128924500Y-111475500D01*
X128904815Y-111542539D01*
X128852011Y-111588294D01*
X128811142Y-111597184D01*
X128811312Y-111598903D01*
X128805247Y-111599500D01*
X128746770Y-111611131D01*
X128746769Y-111611132D01*
X128680447Y-111655447D01*
X128636132Y-111721769D01*
X128636131Y-111721770D01*
X128624500Y-111780247D01*
X128624500Y-113219752D01*
X128636131Y-113278229D01*
X128636132Y-113278230D01*
X128680447Y-113344552D01*
X128746769Y-113388867D01*
X128746770Y-113388868D01*
X128805247Y-113400499D01*
X128805250Y-113400500D01*
X128805252Y-113400500D01*
X129944750Y-113400500D01*
X129944751Y-113400499D01*
X129959568Y-113397552D01*
X130003229Y-113388868D01*
X130003229Y-113388867D01*
X130003231Y-113388867D01*
X130069552Y-113344552D01*
X130113867Y-113278231D01*
X130113867Y-113278229D01*
X130113868Y-113278229D01*
X130125499Y-113219752D01*
X130125500Y-113219750D01*
X130125500Y-111780249D01*
X130125499Y-111780247D01*
X130113868Y-111721770D01*
X130113867Y-111721769D01*
X130069552Y-111655447D01*
X130003230Y-111611132D01*
X130003229Y-111611131D01*
X129944752Y-111599500D01*
X129938688Y-111598903D01*
X129938934Y-111596397D01*
X129882461Y-111579815D01*
X129836706Y-111527011D01*
X129825500Y-111475500D01*
X129825500Y-110565693D01*
X129825500Y-110565691D01*
X129810869Y-110511087D01*
X129812532Y-110441238D01*
X129851695Y-110383376D01*
X129915923Y-110355872D01*
X129984826Y-110367459D01*
X129992645Y-110371608D01*
X130076114Y-110419799D01*
X130190691Y-110450500D01*
X151512035Y-110450500D01*
X151579074Y-110470185D01*
X151599716Y-110486819D01*
X152933181Y-111820284D01*
X152966666Y-111881607D01*
X152969500Y-111907965D01*
X152969500Y-116883000D01*
X152949815Y-116950039D01*
X152897011Y-116995794D01*
X152845500Y-117007000D01*
X152638247Y-117007000D01*
X152579770Y-117018631D01*
X152579769Y-117018632D01*
X152513447Y-117062947D01*
X152469132Y-117129269D01*
X152469131Y-117129270D01*
X152457500Y-117187747D01*
X152457500Y-120252252D01*
X152469131Y-120310729D01*
X152469132Y-120310730D01*
X152513447Y-120377052D01*
X152579769Y-120421367D01*
X152579770Y-120421368D01*
X152638247Y-120432999D01*
X152638250Y-120433000D01*
X152638252Y-120433000D01*
X154201750Y-120433000D01*
X154201751Y-120432999D01*
X154226121Y-120428152D01*
X154260229Y-120421368D01*
X154260229Y-120421367D01*
X154260231Y-120421367D01*
X154326552Y-120377052D01*
X154370867Y-120310731D01*
X154370867Y-120310729D01*
X154370868Y-120310729D01*
X154382499Y-120252252D01*
X154382500Y-120252250D01*
X154382500Y-117187749D01*
X154382499Y-117187747D01*
X154370868Y-117129270D01*
X154370867Y-117129269D01*
X154326552Y-117062947D01*
X154260230Y-117018632D01*
X154260229Y-117018631D01*
X154201752Y-117007000D01*
X154201748Y-117007000D01*
X153994500Y-117007000D01*
X153927461Y-116987315D01*
X153881706Y-116934511D01*
X153870500Y-116883000D01*
X153870500Y-111610693D01*
X153870500Y-111610691D01*
X153839799Y-111496114D01*
X153839799Y-111496113D01*
X153839799Y-111496112D01*
X153780492Y-111393389D01*
X153780488Y-111393384D01*
X152026616Y-109639513D01*
X152026614Y-109639511D01*
X151975250Y-109609856D01*
X151923888Y-109580201D01*
X151911780Y-109576957D01*
X151899673Y-109573713D01*
X151899670Y-109573712D01*
X151861478Y-109563478D01*
X151809309Y-109549500D01*
X151809308Y-109549500D01*
X130487965Y-109549500D01*
X130420926Y-109529815D01*
X130400284Y-109513181D01*
X129736819Y-108849716D01*
X129703334Y-108788393D01*
X129700500Y-108762035D01*
X129700500Y-106010247D01*
X130799500Y-106010247D01*
X130799500Y-108549752D01*
X130811131Y-108608229D01*
X130811132Y-108608230D01*
X130855447Y-108674552D01*
X130921769Y-108718867D01*
X130921770Y-108718868D01*
X130980247Y-108730499D01*
X130980250Y-108730500D01*
X130980252Y-108730500D01*
X133519750Y-108730500D01*
X133519751Y-108730499D01*
X133534568Y-108727552D01*
X133578229Y-108718868D01*
X133578229Y-108718867D01*
X133578231Y-108718867D01*
X133644552Y-108674552D01*
X133688867Y-108608231D01*
X133688867Y-108608229D01*
X133688868Y-108608229D01*
X133700499Y-108549752D01*
X133700500Y-108549750D01*
X133700500Y-107854500D01*
X133720185Y-107787461D01*
X133772989Y-107741706D01*
X133824500Y-107730500D01*
X154542035Y-107730500D01*
X154609074Y-107750185D01*
X154629716Y-107766819D01*
X158013181Y-111150284D01*
X158046666Y-111211607D01*
X158049500Y-111237965D01*
X158049500Y-116883000D01*
X158029815Y-116950039D01*
X157977011Y-116995794D01*
X157925500Y-117007000D01*
X157718247Y-117007000D01*
X157659770Y-117018631D01*
X157659769Y-117018632D01*
X157593447Y-117062947D01*
X157549132Y-117129269D01*
X157549131Y-117129270D01*
X157537500Y-117187747D01*
X157537500Y-120252252D01*
X157549131Y-120310729D01*
X157549132Y-120310730D01*
X157593447Y-120377052D01*
X157659769Y-120421367D01*
X157659770Y-120421368D01*
X157718247Y-120432999D01*
X157718250Y-120433000D01*
X157718252Y-120433000D01*
X157925500Y-120433000D01*
X157992539Y-120452685D01*
X158038294Y-120505489D01*
X158049500Y-120557000D01*
X158049500Y-122012035D01*
X158029815Y-122079074D01*
X158013181Y-122099716D01*
X154349716Y-125763181D01*
X154288393Y-125796666D01*
X154262035Y-125799500D01*
X151279500Y-125799500D01*
X151212461Y-125779815D01*
X151166706Y-125727011D01*
X151155500Y-125675500D01*
X151155500Y-125355249D01*
X151155499Y-125355247D01*
X151143868Y-125296770D01*
X151143867Y-125296769D01*
X151099552Y-125230447D01*
X151033230Y-125186132D01*
X151033229Y-125186131D01*
X150974752Y-125174500D01*
X150974748Y-125174500D01*
X149185252Y-125174500D01*
X149185247Y-125174500D01*
X149126770Y-125186131D01*
X149126769Y-125186132D01*
X149060447Y-125230447D01*
X149016132Y-125296769D01*
X149016131Y-125296770D01*
X149004500Y-125355247D01*
X149004500Y-127144752D01*
X149016131Y-127203229D01*
X149016132Y-127203230D01*
X149060447Y-127269552D01*
X149126769Y-127313867D01*
X149126770Y-127313868D01*
X149185247Y-127325499D01*
X149185250Y-127325500D01*
X149185252Y-127325500D01*
X150974750Y-127325500D01*
X150974751Y-127325499D01*
X150989568Y-127322552D01*
X151033229Y-127313868D01*
X151033229Y-127313867D01*
X151033231Y-127313867D01*
X151099552Y-127269552D01*
X151143867Y-127203231D01*
X151143867Y-127203229D01*
X151143868Y-127203229D01*
X151155499Y-127144752D01*
X151155500Y-127144750D01*
X151155500Y-126824500D01*
X151175185Y-126757461D01*
X151227989Y-126711706D01*
X151279500Y-126700500D01*
X154559308Y-126700500D01*
X154559309Y-126700500D01*
X154649673Y-126676286D01*
X154673887Y-126669799D01*
X154776614Y-126610489D01*
X158860489Y-122526614D01*
X158919799Y-122423887D01*
X158926285Y-122399675D01*
X158926286Y-122399675D01*
X158926286Y-122399671D01*
X158950500Y-122309309D01*
X158950500Y-120557000D01*
X158970185Y-120489961D01*
X159022989Y-120444206D01*
X159074500Y-120433000D01*
X159281750Y-120433000D01*
X159281751Y-120432999D01*
X159306121Y-120428152D01*
X159340229Y-120421368D01*
X159340229Y-120421367D01*
X159340231Y-120421367D01*
X159406552Y-120377052D01*
X159450867Y-120310731D01*
X159450867Y-120310729D01*
X159450868Y-120310729D01*
X159462499Y-120252252D01*
X159462500Y-120252250D01*
X159462500Y-117187749D01*
X159462499Y-117187747D01*
X159450868Y-117129270D01*
X159450867Y-117129269D01*
X159406552Y-117062947D01*
X159340230Y-117018632D01*
X159340229Y-117018631D01*
X159281752Y-117007000D01*
X159281748Y-117007000D01*
X159074500Y-117007000D01*
X159007461Y-116987315D01*
X158961706Y-116934511D01*
X158950500Y-116883000D01*
X158950500Y-110940693D01*
X158950500Y-110940691D01*
X158919799Y-110826114D01*
X158911421Y-110811603D01*
X158894731Y-110782694D01*
X158860493Y-110723392D01*
X158860487Y-110723384D01*
X155056616Y-106919513D01*
X155056614Y-106919511D01*
X155005250Y-106889856D01*
X154953888Y-106860201D01*
X154941780Y-106856957D01*
X154929673Y-106853713D01*
X154929670Y-106853712D01*
X154891478Y-106843478D01*
X154839309Y-106829500D01*
X154839308Y-106829500D01*
X133824500Y-106829500D01*
X133757461Y-106809815D01*
X133711706Y-106757011D01*
X133700500Y-106705500D01*
X133700500Y-106010249D01*
X133700499Y-106010247D01*
X133688868Y-105951770D01*
X133688867Y-105951769D01*
X133644552Y-105885447D01*
X133578230Y-105841132D01*
X133578229Y-105841131D01*
X133519752Y-105829500D01*
X133519748Y-105829500D01*
X130980252Y-105829500D01*
X130980247Y-105829500D01*
X130921770Y-105841131D01*
X130921769Y-105841132D01*
X130855447Y-105885447D01*
X130811132Y-105951769D01*
X130811131Y-105951770D01*
X130799500Y-106010247D01*
X129700500Y-106010247D01*
X129700500Y-105987965D01*
X129720185Y-105920926D01*
X129736819Y-105900284D01*
X131025284Y-104611819D01*
X131086607Y-104578334D01*
X131112965Y-104575500D01*
X132950500Y-104575500D01*
X133017539Y-104595185D01*
X133063294Y-104647989D01*
X133074500Y-104699500D01*
X133074500Y-104719752D01*
X133086131Y-104778229D01*
X133086132Y-104778230D01*
X133130447Y-104844552D01*
X133196769Y-104888867D01*
X133196770Y-104888868D01*
X133255247Y-104900499D01*
X133255250Y-104900500D01*
X133255252Y-104900500D01*
X134994750Y-104900500D01*
X134994751Y-104900499D01*
X135009568Y-104897552D01*
X135053229Y-104888868D01*
X135053229Y-104888867D01*
X135053231Y-104888867D01*
X135119552Y-104844552D01*
X135163867Y-104778231D01*
X135163867Y-104778229D01*
X135163868Y-104778229D01*
X135175499Y-104719752D01*
X135175500Y-104719750D01*
X135175500Y-103530249D01*
X135175499Y-103530247D01*
X135163868Y-103471770D01*
X135163867Y-103471769D01*
X135112767Y-103395293D01*
X135115915Y-103393189D01*
X135092801Y-103350858D01*
X135097785Y-103281166D01*
X135139657Y-103225233D01*
X135205121Y-103200816D01*
X135213967Y-103200500D01*
X139633500Y-103200500D01*
X139700539Y-103220185D01*
X139746294Y-103272989D01*
X139757500Y-103324500D01*
X139757500Y-104282252D01*
X139769131Y-104340729D01*
X139769132Y-104340730D01*
X139813447Y-104407052D01*
X139879769Y-104451367D01*
X139879770Y-104451368D01*
X139938247Y-104462999D01*
X139938250Y-104463000D01*
X139938252Y-104463000D01*
X141501750Y-104463000D01*
X141501751Y-104462999D01*
X141516568Y-104460052D01*
X141560229Y-104451368D01*
X141560229Y-104451367D01*
X141560231Y-104451367D01*
X141626552Y-104407052D01*
X141670867Y-104340731D01*
X141670867Y-104340729D01*
X141670868Y-104340729D01*
X141682499Y-104282252D01*
X141682500Y-104282250D01*
X141682500Y-101217749D01*
X141682499Y-101217747D01*
X141670868Y-101159270D01*
X141670867Y-101159269D01*
X141626552Y-101092947D01*
X141560230Y-101048632D01*
X141560229Y-101048631D01*
X141501752Y-101037000D01*
X141501748Y-101037000D01*
X139938252Y-101037000D01*
X139938247Y-101037000D01*
X139879770Y-101048631D01*
X139879769Y-101048632D01*
X139813447Y-101092947D01*
X139769132Y-101159269D01*
X139769131Y-101159270D01*
X139757500Y-101217747D01*
X139757500Y-102175500D01*
X139737815Y-102242539D01*
X139685011Y-102288294D01*
X139633500Y-102299500D01*
X135146770Y-102299500D01*
X135079731Y-102279815D01*
X135033976Y-102227011D01*
X135024032Y-102157853D01*
X135053057Y-102094297D01*
X135077878Y-102072398D01*
X135119553Y-102044551D01*
X135134256Y-102022545D01*
X135163867Y-101978231D01*
X135163867Y-101978229D01*
X135163868Y-101978229D01*
X135175499Y-101919752D01*
X135175500Y-101919750D01*
X135175500Y-101899500D01*
X135195185Y-101832461D01*
X135247989Y-101786706D01*
X135299500Y-101775500D01*
X137734308Y-101775500D01*
X137734309Y-101775500D01*
X137824673Y-101751286D01*
X137848887Y-101744799D01*
X137951614Y-101685489D01*
X139360489Y-100276614D01*
X139419799Y-100173887D01*
X139426285Y-100149675D01*
X139426286Y-100149675D01*
X139426286Y-100149671D01*
X139450500Y-100059309D01*
X139450500Y-97554108D01*
X140304500Y-97554108D01*
X140304500Y-99085891D01*
X140338608Y-99213187D01*
X140371554Y-99270250D01*
X140404500Y-99327314D01*
X140497686Y-99420500D01*
X140611814Y-99486392D01*
X140739108Y-99520500D01*
X140739110Y-99520500D01*
X140870890Y-99520500D01*
X140870892Y-99520500D01*
X140998186Y-99486392D01*
X141112314Y-99420500D01*
X141205500Y-99327314D01*
X141271392Y-99213186D01*
X141305500Y-99085892D01*
X141305500Y-97554108D01*
X141271392Y-97426814D01*
X141205500Y-97312686D01*
X141112314Y-97219500D01*
X141055250Y-97186554D01*
X140998187Y-97153608D01*
X140934539Y-97136554D01*
X140870892Y-97119500D01*
X140739108Y-97119500D01*
X140611812Y-97153608D01*
X140497686Y-97219500D01*
X140497683Y-97219502D01*
X140404502Y-97312683D01*
X140404500Y-97312686D01*
X140338608Y-97426812D01*
X140304500Y-97554108D01*
X139450500Y-97554108D01*
X139450500Y-96190691D01*
X139419799Y-96076114D01*
X139419799Y-96076113D01*
X139360489Y-95973386D01*
X138936819Y-95549716D01*
X138922115Y-95522788D01*
X138905523Y-95496970D01*
X138904631Y-95490769D01*
X138903334Y-95488393D01*
X138900500Y-95462035D01*
X138900500Y-95324500D01*
X138920185Y-95257461D01*
X138972989Y-95211706D01*
X139024500Y-95200500D01*
X140512035Y-95200500D01*
X140579074Y-95220185D01*
X140599716Y-95236819D01*
X141588181Y-96225284D01*
X141621666Y-96286607D01*
X141624500Y-96312965D01*
X141624500Y-97366062D01*
X141610383Y-97418751D01*
X141611719Y-97419304D01*
X141608608Y-97426814D01*
X141574500Y-97554108D01*
X141574500Y-99085891D01*
X141608608Y-99213187D01*
X141641554Y-99270250D01*
X141674500Y-99327314D01*
X141767686Y-99420500D01*
X141881814Y-99486392D01*
X142009108Y-99520500D01*
X142009110Y-99520500D01*
X142140890Y-99520500D01*
X142140892Y-99520500D01*
X142268186Y-99486392D01*
X142382314Y-99420500D01*
X142475500Y-99327314D01*
X142541392Y-99213186D01*
X142575500Y-99085892D01*
X142575500Y-97554108D01*
X142541392Y-97426814D01*
X142541388Y-97426807D01*
X142538349Y-97419469D01*
X142536706Y-97417573D01*
X142525500Y-97366062D01*
X142525500Y-96015693D01*
X142525500Y-96015691D01*
X142494799Y-95901114D01*
X142494799Y-95901113D01*
X142435489Y-95798386D01*
X141026614Y-94389511D01*
X140975250Y-94359856D01*
X140923888Y-94330201D01*
X140908630Y-94326113D01*
X140899673Y-94323713D01*
X140899670Y-94323712D01*
X140861478Y-94313478D01*
X140809309Y-94299500D01*
X140809308Y-94299500D01*
X139024500Y-94299500D01*
X138957461Y-94279815D01*
X138911706Y-94227011D01*
X138900500Y-94175500D01*
X138900500Y-94030249D01*
X138900499Y-94030247D01*
X138888868Y-93971770D01*
X138888867Y-93971769D01*
X138844552Y-93905447D01*
X138778230Y-93861132D01*
X138778229Y-93861131D01*
X138719752Y-93849500D01*
X138719748Y-93849500D01*
X138661406Y-93849500D01*
X138594367Y-93829815D01*
X138548612Y-93777011D01*
X138541633Y-93757600D01*
X138519799Y-93676114D01*
X138519797Y-93676110D01*
X138494731Y-93632694D01*
X138460493Y-93573392D01*
X138460487Y-93573384D01*
X137106303Y-92219200D01*
X137072818Y-92157877D01*
X137077802Y-92088185D01*
X137090879Y-92062633D01*
X137113867Y-92028231D01*
X137113867Y-92028230D01*
X137113868Y-92028229D01*
X137125499Y-91969752D01*
X137125500Y-91969750D01*
X137125500Y-90530249D01*
X137125499Y-90530247D01*
X137374500Y-90530247D01*
X137374500Y-91969752D01*
X137386131Y-92028229D01*
X137386132Y-92028230D01*
X137430447Y-92094552D01*
X137496769Y-92138867D01*
X137496770Y-92138868D01*
X137555247Y-92150499D01*
X137555250Y-92150500D01*
X137555252Y-92150500D01*
X138694750Y-92150500D01*
X138694751Y-92150499D01*
X138709568Y-92147552D01*
X138753229Y-92138868D01*
X138753229Y-92138867D01*
X138753231Y-92138867D01*
X138819552Y-92094552D01*
X138863867Y-92028231D01*
X138864608Y-92024504D01*
X138868467Y-92017126D01*
X138868542Y-92016946D01*
X138868558Y-92016952D01*
X138896989Y-91962594D01*
X138957703Y-91928016D01*
X139027472Y-91931752D01*
X139073907Y-91961010D01*
X142858181Y-95745284D01*
X142891666Y-95806607D01*
X142894500Y-95832965D01*
X142894500Y-97366062D01*
X142892027Y-97375290D01*
X142893238Y-97383709D01*
X142884853Y-97402069D01*
X142880383Y-97418751D01*
X142881719Y-97419304D01*
X142878609Y-97426812D01*
X142878608Y-97426814D01*
X142844500Y-97554108D01*
X142844500Y-99085892D01*
X142868078Y-99173887D01*
X142878608Y-99213186D01*
X142881718Y-99220693D01*
X142880381Y-99221246D01*
X142894500Y-99273936D01*
X142894500Y-100913000D01*
X142874815Y-100980039D01*
X142822011Y-101025794D01*
X142770500Y-101037000D01*
X142478247Y-101037000D01*
X142419770Y-101048631D01*
X142419769Y-101048632D01*
X142353447Y-101092947D01*
X142309132Y-101159269D01*
X142309131Y-101159270D01*
X142297500Y-101217747D01*
X142297500Y-104282252D01*
X142309131Y-104340729D01*
X142309132Y-104340730D01*
X142353447Y-104407052D01*
X142419769Y-104451367D01*
X142419770Y-104451368D01*
X142478247Y-104462999D01*
X142478250Y-104463000D01*
X142478252Y-104463000D01*
X144041750Y-104463000D01*
X144041751Y-104462999D01*
X144056568Y-104460052D01*
X144100229Y-104451368D01*
X144100229Y-104451367D01*
X144100231Y-104451367D01*
X144166552Y-104407052D01*
X144210867Y-104340731D01*
X144210867Y-104340729D01*
X144210868Y-104340729D01*
X144222499Y-104282252D01*
X144222500Y-104282250D01*
X144222500Y-101217749D01*
X144222499Y-101217747D01*
X144837500Y-101217747D01*
X144837500Y-104282252D01*
X144849131Y-104340729D01*
X144849132Y-104340730D01*
X144893447Y-104407052D01*
X144959769Y-104451367D01*
X144959770Y-104451368D01*
X145018247Y-104462999D01*
X145018250Y-104463000D01*
X145018252Y-104463000D01*
X146581750Y-104463000D01*
X146581751Y-104462999D01*
X146596568Y-104460052D01*
X146640229Y-104451368D01*
X146640229Y-104451367D01*
X146640231Y-104451367D01*
X146706552Y-104407052D01*
X146750867Y-104340731D01*
X146750867Y-104340729D01*
X146750868Y-104340729D01*
X146762499Y-104282252D01*
X146762500Y-104282250D01*
X146762500Y-101217749D01*
X146762499Y-101217747D01*
X146750868Y-101159270D01*
X146750867Y-101159269D01*
X146706552Y-101092947D01*
X146640230Y-101048632D01*
X146640229Y-101048631D01*
X146581752Y-101037000D01*
X146581748Y-101037000D01*
X145018252Y-101037000D01*
X145018247Y-101037000D01*
X144959770Y-101048631D01*
X144959769Y-101048632D01*
X144893447Y-101092947D01*
X144849132Y-101159269D01*
X144849131Y-101159270D01*
X144837500Y-101217747D01*
X144222499Y-101217747D01*
X144210868Y-101159270D01*
X144210867Y-101159269D01*
X144166552Y-101092947D01*
X144100230Y-101048632D01*
X144100229Y-101048631D01*
X144041752Y-101037000D01*
X144041748Y-101037000D01*
X143919500Y-101037000D01*
X143852461Y-101017315D01*
X143806706Y-100964511D01*
X143795500Y-100913000D01*
X143795500Y-99273936D01*
X143809618Y-99221246D01*
X143808282Y-99220693D01*
X143811391Y-99213187D01*
X143811392Y-99213186D01*
X143845500Y-99085892D01*
X143845500Y-97554108D01*
X144114500Y-97554108D01*
X144114500Y-99085891D01*
X144148608Y-99213187D01*
X144181554Y-99270250D01*
X144214500Y-99327314D01*
X144307686Y-99420500D01*
X144421814Y-99486392D01*
X144549108Y-99520500D01*
X144549110Y-99520500D01*
X144680890Y-99520500D01*
X144680892Y-99520500D01*
X144808186Y-99486392D01*
X144922314Y-99420500D01*
X145015500Y-99327314D01*
X145081392Y-99213186D01*
X145115500Y-99085892D01*
X145115500Y-97554108D01*
X145384500Y-97554108D01*
X145384500Y-99085891D01*
X145418608Y-99213187D01*
X145451554Y-99270250D01*
X145484500Y-99327314D01*
X145577686Y-99420500D01*
X145691814Y-99486392D01*
X145819108Y-99520500D01*
X145819110Y-99520500D01*
X145950890Y-99520500D01*
X145950892Y-99520500D01*
X146078186Y-99486392D01*
X146192314Y-99420500D01*
X146285500Y-99327314D01*
X146351392Y-99213186D01*
X146385500Y-99085892D01*
X146385500Y-97554108D01*
X146654500Y-97554108D01*
X146654500Y-99085891D01*
X146688608Y-99213187D01*
X146721554Y-99270250D01*
X146754500Y-99327314D01*
X146847686Y-99420500D01*
X146961814Y-99486392D01*
X147089108Y-99520500D01*
X147089110Y-99520500D01*
X147220890Y-99520500D01*
X147220892Y-99520500D01*
X147348186Y-99486392D01*
X147462314Y-99420500D01*
X147555500Y-99327314D01*
X147621392Y-99213186D01*
X147655500Y-99085892D01*
X147655500Y-97554108D01*
X147924500Y-97554108D01*
X147924500Y-99085891D01*
X147958608Y-99213187D01*
X147991554Y-99270250D01*
X148024500Y-99327314D01*
X148117686Y-99420500D01*
X148231814Y-99486392D01*
X148359108Y-99520500D01*
X148359110Y-99520500D01*
X148490890Y-99520500D01*
X148490892Y-99520500D01*
X148618186Y-99486392D01*
X148732314Y-99420500D01*
X148825500Y-99327314D01*
X148891392Y-99213186D01*
X148925500Y-99085892D01*
X148925500Y-97554108D01*
X149194500Y-97554108D01*
X149194500Y-99085891D01*
X149228608Y-99213187D01*
X149261554Y-99270250D01*
X149294500Y-99327314D01*
X149387686Y-99420500D01*
X149501814Y-99486392D01*
X149629108Y-99520500D01*
X149629110Y-99520500D01*
X149760890Y-99520500D01*
X149760892Y-99520500D01*
X149888186Y-99486392D01*
X150002314Y-99420500D01*
X150095500Y-99327314D01*
X150161392Y-99213186D01*
X150195500Y-99085892D01*
X150195500Y-97554108D01*
X150161392Y-97426814D01*
X150095500Y-97312686D01*
X150002314Y-97219500D01*
X149945250Y-97186554D01*
X149888187Y-97153608D01*
X149824539Y-97136554D01*
X149760892Y-97119500D01*
X149629108Y-97119500D01*
X149501812Y-97153608D01*
X149387686Y-97219500D01*
X149387683Y-97219502D01*
X149294502Y-97312683D01*
X149294500Y-97312686D01*
X149228608Y-97426812D01*
X149194500Y-97554108D01*
X148925500Y-97554108D01*
X148891392Y-97426814D01*
X148825500Y-97312686D01*
X148732314Y-97219500D01*
X148675250Y-97186554D01*
X148618187Y-97153608D01*
X148554539Y-97136554D01*
X148490892Y-97119500D01*
X148359108Y-97119500D01*
X148231812Y-97153608D01*
X148117686Y-97219500D01*
X148117683Y-97219502D01*
X148024502Y-97312683D01*
X148024500Y-97312686D01*
X147958608Y-97426812D01*
X147924500Y-97554108D01*
X147655500Y-97554108D01*
X147621392Y-97426814D01*
X147555500Y-97312686D01*
X147462314Y-97219500D01*
X147405250Y-97186554D01*
X147348187Y-97153608D01*
X147284539Y-97136554D01*
X147220892Y-97119500D01*
X147089108Y-97119500D01*
X146961812Y-97153608D01*
X146847686Y-97219500D01*
X146847683Y-97219502D01*
X146754502Y-97312683D01*
X146754500Y-97312686D01*
X146688608Y-97426812D01*
X146654500Y-97554108D01*
X146385500Y-97554108D01*
X146351392Y-97426814D01*
X146285500Y-97312686D01*
X146192314Y-97219500D01*
X146135250Y-97186554D01*
X146078187Y-97153608D01*
X146014539Y-97136554D01*
X145950892Y-97119500D01*
X145819108Y-97119500D01*
X145691812Y-97153608D01*
X145577686Y-97219500D01*
X145577683Y-97219502D01*
X145484502Y-97312683D01*
X145484500Y-97312686D01*
X145418608Y-97426812D01*
X145384500Y-97554108D01*
X145115500Y-97554108D01*
X145081392Y-97426814D01*
X145015500Y-97312686D01*
X144922314Y-97219500D01*
X144865250Y-97186554D01*
X144808187Y-97153608D01*
X144744539Y-97136554D01*
X144680892Y-97119500D01*
X144549108Y-97119500D01*
X144421812Y-97153608D01*
X144307686Y-97219500D01*
X144307683Y-97219502D01*
X144214502Y-97312683D01*
X144214500Y-97312686D01*
X144148608Y-97426812D01*
X144114500Y-97554108D01*
X143845500Y-97554108D01*
X143811392Y-97426814D01*
X143811388Y-97426807D01*
X143808281Y-97419304D01*
X143809616Y-97418751D01*
X143795500Y-97366062D01*
X143795500Y-95535693D01*
X143795500Y-95535691D01*
X143764799Y-95421114D01*
X143764799Y-95421113D01*
X143705489Y-95318386D01*
X139276614Y-90889511D01*
X139225250Y-90859856D01*
X139173888Y-90830201D01*
X139166812Y-90828305D01*
X139149673Y-90823713D01*
X139059309Y-90799500D01*
X138989882Y-90799500D01*
X138980384Y-90798018D01*
X138957124Y-90787056D01*
X138932461Y-90779815D01*
X138926045Y-90772411D01*
X138917181Y-90768234D01*
X138903539Y-90746438D01*
X138886706Y-90727011D01*
X138884215Y-90715561D01*
X138880113Y-90709007D01*
X138880252Y-90697346D01*
X138875500Y-90675500D01*
X138875500Y-90530249D01*
X138875499Y-90530247D01*
X138863868Y-90471770D01*
X138863867Y-90471769D01*
X138819552Y-90405447D01*
X138753230Y-90361132D01*
X138753229Y-90361131D01*
X138694752Y-90349500D01*
X138694748Y-90349500D01*
X137555252Y-90349500D01*
X137555247Y-90349500D01*
X137496770Y-90361131D01*
X137496769Y-90361132D01*
X137430447Y-90405447D01*
X137386132Y-90471769D01*
X137386131Y-90471770D01*
X137374500Y-90530247D01*
X137125499Y-90530247D01*
X137113868Y-90471770D01*
X137113867Y-90471769D01*
X137069552Y-90405447D01*
X137003230Y-90361132D01*
X137003229Y-90361131D01*
X136944752Y-90349500D01*
X136938688Y-90348903D01*
X136938852Y-90347231D01*
X136931853Y-90348238D01*
X136907812Y-90337259D01*
X136882461Y-90329815D01*
X136876533Y-90322974D01*
X136868297Y-90319213D01*
X136854007Y-90296978D01*
X136836706Y-90277011D01*
X136834418Y-90266496D01*
X136830523Y-90260435D01*
X136825500Y-90225500D01*
X136825500Y-90024500D01*
X136845185Y-89957461D01*
X136897989Y-89911706D01*
X136938857Y-89902815D01*
X136938688Y-89901097D01*
X136944742Y-89900500D01*
X136944748Y-89900500D01*
X136959568Y-89897552D01*
X137003229Y-89888868D01*
X137003229Y-89888867D01*
X137003231Y-89888867D01*
X137069552Y-89844552D01*
X137113867Y-89778231D01*
X137113867Y-89778229D01*
X137113868Y-89778229D01*
X137125499Y-89719752D01*
X137125500Y-89719750D01*
X137125500Y-88280249D01*
X137125499Y-88280247D01*
X137113868Y-88221770D01*
X137113867Y-88221769D01*
X137069552Y-88155447D01*
X137003230Y-88111132D01*
X137003229Y-88111131D01*
X136944752Y-88099500D01*
X136938688Y-88098903D01*
X136938852Y-88097231D01*
X136931853Y-88098238D01*
X136907812Y-88087259D01*
X136882461Y-88079815D01*
X136876533Y-88072974D01*
X136868297Y-88069213D01*
X136854007Y-88046978D01*
X136836706Y-88027011D01*
X136834418Y-88016496D01*
X136830523Y-88010435D01*
X136825500Y-87975500D01*
X136825500Y-87774500D01*
X136845185Y-87707461D01*
X136897989Y-87661706D01*
X136938857Y-87652815D01*
X136938688Y-87651097D01*
X136944742Y-87650500D01*
X136944748Y-87650500D01*
X136959568Y-87647552D01*
X137003229Y-87638868D01*
X137003229Y-87638867D01*
X137003231Y-87638867D01*
X137069552Y-87594552D01*
X137113867Y-87528231D01*
X137113867Y-87528229D01*
X137113868Y-87528229D01*
X137125499Y-87469752D01*
X137125500Y-87469750D01*
X137125500Y-86030249D01*
X137125499Y-86030247D01*
X137113868Y-85971770D01*
X137113867Y-85971769D01*
X137069552Y-85905447D01*
X137003230Y-85861132D01*
X137003229Y-85861131D01*
X136944752Y-85849500D01*
X136944748Y-85849500D01*
X135805252Y-85849500D01*
X135805247Y-85849500D01*
X135746770Y-85861131D01*
X135746769Y-85861132D01*
X135680447Y-85905447D01*
X135636132Y-85971769D01*
X135636131Y-85971770D01*
X135624500Y-86030247D01*
X135624500Y-87469752D01*
X135636131Y-87528229D01*
X135636132Y-87528230D01*
X135680447Y-87594552D01*
X135746769Y-87638867D01*
X135746770Y-87638868D01*
X135804852Y-87650420D01*
X135805252Y-87650500D01*
X135805257Y-87650500D01*
X135811312Y-87651097D01*
X135811147Y-87652768D01*
X135818147Y-87651762D01*
X135842187Y-87662740D01*
X135867539Y-87670185D01*
X135873466Y-87677025D01*
X135881703Y-87680787D01*
X135895992Y-87703021D01*
X135913294Y-87722989D01*
X135915581Y-87733503D01*
X135919477Y-87739565D01*
X135924500Y-87774500D01*
X135924500Y-87975500D01*
X135904815Y-88042539D01*
X135852011Y-88088294D01*
X135811142Y-88097184D01*
X135811312Y-88098903D01*
X135805247Y-88099500D01*
X135746770Y-88111131D01*
X135746769Y-88111132D01*
X135680447Y-88155447D01*
X135636132Y-88221769D01*
X135636131Y-88221770D01*
X135624500Y-88280247D01*
X135624500Y-89719752D01*
X135636131Y-89778229D01*
X135636132Y-89778230D01*
X135680447Y-89844552D01*
X135746769Y-89888867D01*
X135746770Y-89888868D01*
X135804852Y-89900420D01*
X135805252Y-89900500D01*
X135805257Y-89900500D01*
X135811312Y-89901097D01*
X135811147Y-89902768D01*
X135818147Y-89901762D01*
X135842187Y-89912740D01*
X135867539Y-89920185D01*
X135873466Y-89927025D01*
X135881703Y-89930787D01*
X135895992Y-89953021D01*
X135913294Y-89972989D01*
X135915581Y-89983503D01*
X135919477Y-89989565D01*
X135924500Y-90024500D01*
X135924500Y-90225500D01*
X135904815Y-90292539D01*
X135852011Y-90338294D01*
X135811142Y-90347184D01*
X135811312Y-90348903D01*
X135805247Y-90349500D01*
X135746770Y-90361131D01*
X135746769Y-90361132D01*
X135680447Y-90405447D01*
X135636132Y-90471769D01*
X135636131Y-90471770D01*
X135624500Y-90530247D01*
X135624500Y-91969752D01*
X135636131Y-92028229D01*
X135636132Y-92028230D01*
X135680447Y-92094552D01*
X135746769Y-92138867D01*
X135746770Y-92138868D01*
X135805247Y-92150499D01*
X135805250Y-92150500D01*
X135805252Y-92150500D01*
X135820292Y-92150500D01*
X135887331Y-92170185D01*
X135933086Y-92222989D01*
X135940067Y-92242406D01*
X135948713Y-92274673D01*
X135948712Y-92274673D01*
X135955200Y-92298885D01*
X135955200Y-92298886D01*
X135955201Y-92298887D01*
X136014511Y-92401614D01*
X136014513Y-92401616D01*
X137349215Y-93736318D01*
X137382700Y-93797641D01*
X137377716Y-93867333D01*
X137360493Y-93894130D01*
X137362233Y-93895293D01*
X137311132Y-93971769D01*
X137311131Y-93971770D01*
X137299500Y-94030247D01*
X137299500Y-95469752D01*
X137311131Y-95528229D01*
X137311132Y-95528230D01*
X137355447Y-95594552D01*
X137421769Y-95638867D01*
X137421770Y-95638868D01*
X137480247Y-95650499D01*
X137480250Y-95650500D01*
X137480252Y-95650500D01*
X137712035Y-95650500D01*
X137779074Y-95670185D01*
X137799716Y-95686819D01*
X138513181Y-96400284D01*
X138546666Y-96461607D01*
X138549500Y-96487965D01*
X138549500Y-99762035D01*
X138529815Y-99829074D01*
X138513181Y-99849716D01*
X137524716Y-100838181D01*
X137463393Y-100871666D01*
X137437035Y-100874500D01*
X135299500Y-100874500D01*
X135232461Y-100854815D01*
X135186706Y-100802011D01*
X135175500Y-100750500D01*
X135175500Y-100730249D01*
X135175499Y-100730247D01*
X135163868Y-100671770D01*
X135163867Y-100671769D01*
X135119552Y-100605447D01*
X135053230Y-100561132D01*
X135053229Y-100561131D01*
X134994752Y-100549500D01*
X134994748Y-100549500D01*
X133255252Y-100549500D01*
X133255247Y-100549500D01*
X133196770Y-100561131D01*
X133196769Y-100561132D01*
X133130447Y-100605447D01*
X133086132Y-100671769D01*
X133086131Y-100671770D01*
X133074500Y-100730247D01*
X133074500Y-101919752D01*
X133086131Y-101978229D01*
X133086132Y-101978230D01*
X133130446Y-102044551D01*
X133172122Y-102072398D01*
X133216926Y-102126011D01*
X133225633Y-102195336D01*
X133195478Y-102258363D01*
X133136035Y-102295082D01*
X133103230Y-102299500D01*
X130690691Y-102299500D01*
X130600325Y-102323713D01*
X130600324Y-102323712D01*
X130576116Y-102330199D01*
X130576113Y-102330200D01*
X130473386Y-102389511D01*
X130473383Y-102389513D01*
X127889513Y-104973383D01*
X127889509Y-104973389D01*
X127830201Y-105076112D01*
X127830201Y-105076113D01*
X127830201Y-105076114D01*
X127799500Y-105190691D01*
X125200500Y-105190691D01*
X125200500Y-88803871D01*
X125220185Y-88736832D01*
X125272989Y-88691077D01*
X125342147Y-88681133D01*
X125405703Y-88710158D01*
X125412181Y-88716190D01*
X125478275Y-88782284D01*
X125478280Y-88782288D01*
X125478281Y-88782289D01*
X125763135Y-89016063D01*
X126069532Y-89220791D01*
X126069541Y-89220796D01*
X126069543Y-89220797D01*
X126394513Y-89394497D01*
X126394515Y-89394497D01*
X126394521Y-89394501D01*
X126734971Y-89535520D01*
X127087604Y-89642490D01*
X127087610Y-89642491D01*
X127087613Y-89642492D01*
X127087624Y-89642495D01*
X127449024Y-89714381D01*
X127815750Y-89750500D01*
X127815753Y-89750500D01*
X128184247Y-89750500D01*
X128184250Y-89750500D01*
X128550976Y-89714381D01*
X128621331Y-89700386D01*
X128912375Y-89642495D01*
X128912386Y-89642492D01*
X128912386Y-89642491D01*
X128912396Y-89642490D01*
X129265029Y-89535520D01*
X129605479Y-89394501D01*
X129930468Y-89220791D01*
X130236865Y-89016063D01*
X130521719Y-88782289D01*
X130782289Y-88521719D01*
X131016063Y-88236865D01*
X131220791Y-87930468D01*
X131394501Y-87605479D01*
X131535520Y-87265029D01*
X131642490Y-86912396D01*
X131642492Y-86912386D01*
X131642495Y-86912375D01*
X131714381Y-86550975D01*
X131750500Y-86184250D01*
X131750500Y-85940691D01*
X132799500Y-85940691D01*
X132799500Y-96809308D01*
X132821594Y-96891768D01*
X132830200Y-96923885D01*
X132830200Y-96923886D01*
X132830201Y-96923887D01*
X132889511Y-97026614D01*
X134193387Y-98330490D01*
X134277945Y-98379309D01*
X134277946Y-98379310D01*
X134296110Y-98389797D01*
X134296111Y-98389797D01*
X134296114Y-98389799D01*
X134410691Y-98420500D01*
X135465500Y-98420500D01*
X135532539Y-98440185D01*
X135578294Y-98492989D01*
X135589500Y-98544500D01*
X135589500Y-98989752D01*
X135601131Y-99048229D01*
X135601132Y-99048230D01*
X135645447Y-99114552D01*
X135711769Y-99158867D01*
X135711770Y-99158868D01*
X135770247Y-99170499D01*
X135770250Y-99170500D01*
X135770252Y-99170500D01*
X137809750Y-99170500D01*
X137809751Y-99170499D01*
X137824568Y-99167552D01*
X137868229Y-99158868D01*
X137868229Y-99158867D01*
X137868231Y-99158867D01*
X137934552Y-99114552D01*
X137978867Y-99048231D01*
X137978867Y-99048229D01*
X137978868Y-99048229D01*
X137990499Y-98989752D01*
X137990500Y-98989750D01*
X137990500Y-96950249D01*
X137990499Y-96950247D01*
X137978868Y-96891770D01*
X137978867Y-96891768D01*
X137934552Y-96825447D01*
X137868230Y-96781132D01*
X137868229Y-96781131D01*
X137809752Y-96769500D01*
X137809748Y-96769500D01*
X135770252Y-96769500D01*
X135770247Y-96769500D01*
X135711770Y-96781131D01*
X135711769Y-96781132D01*
X135645447Y-96825447D01*
X135601133Y-96891768D01*
X135601131Y-96891770D01*
X135589500Y-96950247D01*
X135589500Y-97395500D01*
X135569815Y-97462539D01*
X135517011Y-97508294D01*
X135465500Y-97519500D01*
X134707965Y-97519500D01*
X134640926Y-97499815D01*
X134620284Y-97483181D01*
X133736819Y-96599716D01*
X133703334Y-96538393D01*
X133700500Y-96512035D01*
X133700500Y-86237965D01*
X133720185Y-86170926D01*
X133736819Y-86150284D01*
X134400284Y-85486819D01*
X134461607Y-85453334D01*
X134487965Y-85450500D01*
X142512035Y-85450500D01*
X142541475Y-85459144D01*
X142571462Y-85465668D01*
X142576477Y-85469422D01*
X142579074Y-85470185D01*
X142599716Y-85486819D01*
X142628709Y-85515812D01*
X142662194Y-85577135D01*
X142657210Y-85646827D01*
X142644131Y-85672383D01*
X142611132Y-85721770D01*
X142611131Y-85721770D01*
X142599500Y-85780247D01*
X142599500Y-86663034D01*
X142579815Y-86730073D01*
X142527011Y-86775828D01*
X142457853Y-86785772D01*
X142394297Y-86756747D01*
X142387819Y-86750715D01*
X142026616Y-86389513D01*
X142026614Y-86389511D01*
X141975250Y-86359856D01*
X141923888Y-86330201D01*
X141911780Y-86326957D01*
X141899673Y-86323713D01*
X141899670Y-86323712D01*
X141861478Y-86313478D01*
X141809309Y-86299500D01*
X141809308Y-86299500D01*
X138999500Y-86299500D01*
X138932461Y-86279815D01*
X138886706Y-86227011D01*
X138875500Y-86175500D01*
X138875500Y-86030249D01*
X138875499Y-86030247D01*
X138863868Y-85971770D01*
X138863867Y-85971769D01*
X138819552Y-85905447D01*
X138753230Y-85861132D01*
X138753229Y-85861131D01*
X138694752Y-85849500D01*
X138694748Y-85849500D01*
X137555252Y-85849500D01*
X137555247Y-85849500D01*
X137496770Y-85861131D01*
X137496769Y-85861132D01*
X137430447Y-85905447D01*
X137386132Y-85971769D01*
X137386131Y-85971770D01*
X137374500Y-86030247D01*
X137374500Y-87469752D01*
X137386131Y-87528229D01*
X137386132Y-87528230D01*
X137430447Y-87594552D01*
X137496769Y-87638867D01*
X137496770Y-87638868D01*
X137555247Y-87650499D01*
X137555250Y-87650500D01*
X137555252Y-87650500D01*
X138694750Y-87650500D01*
X138694751Y-87650499D01*
X138709568Y-87647552D01*
X138753229Y-87638868D01*
X138753229Y-87638867D01*
X138753231Y-87638867D01*
X138819552Y-87594552D01*
X138863867Y-87528231D01*
X138863867Y-87528229D01*
X138863868Y-87528229D01*
X138875499Y-87469752D01*
X138875500Y-87469750D01*
X138875500Y-87324500D01*
X138895185Y-87257461D01*
X138947989Y-87211706D01*
X138999500Y-87200500D01*
X141500500Y-87200500D01*
X141567539Y-87220185D01*
X141613294Y-87272989D01*
X141624500Y-87324500D01*
X141624500Y-88099062D01*
X141610383Y-88151751D01*
X141611719Y-88152304D01*
X141608608Y-88159814D01*
X141574500Y-88287108D01*
X141574500Y-88959064D01*
X141570275Y-88991157D01*
X141549275Y-89069532D01*
X141512910Y-89129192D01*
X141450064Y-89159722D01*
X141380688Y-89151428D01*
X141326810Y-89106943D01*
X141305535Y-89040391D01*
X141305500Y-89037439D01*
X141305500Y-88287110D01*
X141305500Y-88287108D01*
X141271392Y-88159814D01*
X141205500Y-88045686D01*
X141112314Y-87952500D01*
X141055250Y-87919554D01*
X140998187Y-87886608D01*
X140934539Y-87869554D01*
X140870892Y-87852500D01*
X140739108Y-87852500D01*
X140611812Y-87886608D01*
X140497686Y-87952500D01*
X140497683Y-87952502D01*
X140404502Y-88045683D01*
X140404500Y-88045686D01*
X140338608Y-88159812D01*
X140304500Y-88287108D01*
X140304500Y-88425500D01*
X140284815Y-88492539D01*
X140232011Y-88538294D01*
X140180500Y-88549500D01*
X138999500Y-88549500D01*
X138932461Y-88529815D01*
X138886706Y-88477011D01*
X138875500Y-88425500D01*
X138875500Y-88280249D01*
X138875499Y-88280247D01*
X138863868Y-88221770D01*
X138863867Y-88221769D01*
X138819552Y-88155447D01*
X138753230Y-88111132D01*
X138753229Y-88111131D01*
X138694752Y-88099500D01*
X138694748Y-88099500D01*
X137555252Y-88099500D01*
X137555247Y-88099500D01*
X137496770Y-88111131D01*
X137496769Y-88111132D01*
X137430447Y-88155447D01*
X137386132Y-88221769D01*
X137386131Y-88221770D01*
X137374500Y-88280247D01*
X137374500Y-89719752D01*
X137386131Y-89778229D01*
X137386132Y-89778230D01*
X137430447Y-89844552D01*
X137496769Y-89888867D01*
X137496770Y-89888868D01*
X137555247Y-89900499D01*
X137555250Y-89900500D01*
X137555252Y-89900500D01*
X138694750Y-89900500D01*
X138694751Y-89900499D01*
X138709568Y-89897552D01*
X138753229Y-89888868D01*
X138753229Y-89888867D01*
X138753231Y-89888867D01*
X138819552Y-89844552D01*
X138863867Y-89778231D01*
X138863867Y-89778229D01*
X138863868Y-89778229D01*
X138875499Y-89719752D01*
X138875500Y-89719750D01*
X138875500Y-89574500D01*
X138895185Y-89507461D01*
X138947989Y-89461706D01*
X138999500Y-89450500D01*
X140180500Y-89450500D01*
X140247539Y-89470185D01*
X140293294Y-89522989D01*
X140304500Y-89574500D01*
X140304500Y-89818891D01*
X140338608Y-89946186D01*
X140341718Y-89953693D01*
X140340381Y-89954246D01*
X140354500Y-90006936D01*
X140354500Y-91364309D01*
X140370464Y-91423886D01*
X140370464Y-91423888D01*
X140385199Y-91478884D01*
X140385201Y-91478887D01*
X140444511Y-91581614D01*
X141723386Y-92860489D01*
X141826113Y-92919799D01*
X141850321Y-92926284D01*
X141850324Y-92926286D01*
X141850325Y-92926286D01*
X141880447Y-92934357D01*
X141940691Y-92950500D01*
X149262035Y-92950500D01*
X149329074Y-92970185D01*
X149349716Y-92986819D01*
X151013181Y-94650284D01*
X151046666Y-94711607D01*
X151049500Y-94737965D01*
X151049500Y-98762035D01*
X151029815Y-98829074D01*
X151013181Y-98849716D01*
X150099716Y-99763181D01*
X150038393Y-99796666D01*
X150012035Y-99799500D01*
X149190691Y-99799500D01*
X149121944Y-99817920D01*
X149076112Y-99830201D01*
X149076107Y-99830204D01*
X149032695Y-99855267D01*
X149032696Y-99855268D01*
X148973389Y-99889508D01*
X148973383Y-99889513D01*
X147979513Y-100883383D01*
X147979511Y-100883386D01*
X147938811Y-100953881D01*
X147926617Y-100975001D01*
X147876050Y-101023216D01*
X147819230Y-101037000D01*
X147558247Y-101037000D01*
X147499770Y-101048631D01*
X147499769Y-101048632D01*
X147433447Y-101092947D01*
X147389132Y-101159269D01*
X147389131Y-101159270D01*
X147377500Y-101217747D01*
X147377500Y-104282252D01*
X147389131Y-104340729D01*
X147389132Y-104340730D01*
X147433447Y-104407052D01*
X147499769Y-104451367D01*
X147499770Y-104451368D01*
X147558247Y-104462999D01*
X147558250Y-104463000D01*
X147558252Y-104463000D01*
X149121750Y-104463000D01*
X149121751Y-104462999D01*
X149136568Y-104460052D01*
X149180229Y-104451368D01*
X149180229Y-104451367D01*
X149180231Y-104451367D01*
X149246552Y-104407052D01*
X149290867Y-104340731D01*
X149290867Y-104340729D01*
X149290868Y-104340729D01*
X149302499Y-104282252D01*
X149302500Y-104282250D01*
X149302500Y-101217749D01*
X149302499Y-101217747D01*
X149290868Y-101159270D01*
X149290867Y-101159269D01*
X149246551Y-101092946D01*
X149237917Y-101084312D01*
X149239724Y-101082504D01*
X149237346Y-101079658D01*
X149220477Y-101067030D01*
X149215389Y-101053389D01*
X149206051Y-101042217D01*
X149203423Y-101021307D01*
X149196060Y-101001566D01*
X149199154Y-100987340D01*
X149197339Y-100972893D01*
X149206433Y-100953881D01*
X149210912Y-100933293D01*
X149225788Y-100913419D01*
X149227490Y-100909863D01*
X149232026Y-100905076D01*
X149400286Y-100736816D01*
X149461607Y-100703334D01*
X149487965Y-100700500D01*
X150305500Y-100700500D01*
X150372539Y-100720185D01*
X150418294Y-100772989D01*
X150429500Y-100824500D01*
X150429500Y-100913000D01*
X150409815Y-100980039D01*
X150357011Y-101025794D01*
X150305500Y-101037000D01*
X150098247Y-101037000D01*
X150039770Y-101048631D01*
X150039769Y-101048632D01*
X149973447Y-101092947D01*
X149929132Y-101159269D01*
X149929131Y-101159270D01*
X149917500Y-101217747D01*
X149917500Y-104282252D01*
X149929131Y-104340729D01*
X149929132Y-104340730D01*
X149973447Y-104407052D01*
X150039769Y-104451367D01*
X150039770Y-104451368D01*
X150098247Y-104462999D01*
X150098250Y-104463000D01*
X150098252Y-104463000D01*
X151661750Y-104463000D01*
X151661751Y-104462999D01*
X151676568Y-104460052D01*
X151720229Y-104451368D01*
X151720229Y-104451367D01*
X151720231Y-104451367D01*
X151786552Y-104407052D01*
X151830867Y-104340731D01*
X151830867Y-104340729D01*
X151830868Y-104340729D01*
X151842499Y-104282252D01*
X151842500Y-104282250D01*
X151842500Y-101217749D01*
X151842499Y-101217747D01*
X152457500Y-101217747D01*
X152457500Y-104282252D01*
X152469131Y-104340729D01*
X152469132Y-104340730D01*
X152513447Y-104407052D01*
X152579769Y-104451367D01*
X152579770Y-104451368D01*
X152638247Y-104462999D01*
X152638250Y-104463000D01*
X152638252Y-104463000D01*
X154201750Y-104463000D01*
X154201751Y-104462999D01*
X154216568Y-104460052D01*
X154260229Y-104451368D01*
X154260229Y-104451367D01*
X154260231Y-104451367D01*
X154326552Y-104407052D01*
X154370867Y-104340731D01*
X154370867Y-104340729D01*
X154370868Y-104340729D01*
X154382499Y-104282252D01*
X154382500Y-104282250D01*
X154382500Y-101217749D01*
X154382499Y-101217747D01*
X154997500Y-101217747D01*
X154997500Y-104282252D01*
X155009131Y-104340729D01*
X155009132Y-104340730D01*
X155053447Y-104407052D01*
X155119769Y-104451367D01*
X155119770Y-104451368D01*
X155178247Y-104462999D01*
X155178250Y-104463000D01*
X155178252Y-104463000D01*
X156741750Y-104463000D01*
X156741751Y-104462999D01*
X156756568Y-104460052D01*
X156800229Y-104451368D01*
X156800229Y-104451367D01*
X156800231Y-104451367D01*
X156866552Y-104407052D01*
X156910867Y-104340731D01*
X156910867Y-104340729D01*
X156910868Y-104340729D01*
X156922499Y-104282252D01*
X156922500Y-104282250D01*
X156922500Y-101217749D01*
X156922499Y-101217747D01*
X157537500Y-101217747D01*
X157537500Y-104282252D01*
X157549131Y-104340729D01*
X157549132Y-104340730D01*
X157593447Y-104407052D01*
X157659769Y-104451367D01*
X157659770Y-104451368D01*
X157718247Y-104462999D01*
X157718250Y-104463000D01*
X157718252Y-104463000D01*
X159281750Y-104463000D01*
X159281751Y-104462999D01*
X159296568Y-104460052D01*
X159340229Y-104451368D01*
X159340229Y-104451367D01*
X159340231Y-104451367D01*
X159406552Y-104407052D01*
X159450867Y-104340731D01*
X159450867Y-104340729D01*
X159450868Y-104340729D01*
X159462499Y-104282252D01*
X159462500Y-104282250D01*
X159462500Y-101217749D01*
X159462499Y-101217747D01*
X159450868Y-101159270D01*
X159450867Y-101159269D01*
X159406552Y-101092947D01*
X159340230Y-101048632D01*
X159340229Y-101048631D01*
X159281752Y-101037000D01*
X159281748Y-101037000D01*
X157718252Y-101037000D01*
X157718247Y-101037000D01*
X157659770Y-101048631D01*
X157659769Y-101048632D01*
X157593447Y-101092947D01*
X157549132Y-101159269D01*
X157549131Y-101159270D01*
X157537500Y-101217747D01*
X156922499Y-101217747D01*
X156910868Y-101159270D01*
X156910867Y-101159269D01*
X156866552Y-101092947D01*
X156800230Y-101048632D01*
X156800229Y-101048631D01*
X156741752Y-101037000D01*
X156741748Y-101037000D01*
X155178252Y-101037000D01*
X155178247Y-101037000D01*
X155119770Y-101048631D01*
X155119769Y-101048632D01*
X155053447Y-101092947D01*
X155009132Y-101159269D01*
X155009131Y-101159270D01*
X154997500Y-101217747D01*
X154382499Y-101217747D01*
X154370868Y-101159270D01*
X154370867Y-101159269D01*
X154326552Y-101092947D01*
X154260230Y-101048632D01*
X154260229Y-101048631D01*
X154201752Y-101037000D01*
X154201748Y-101037000D01*
X152638252Y-101037000D01*
X152638247Y-101037000D01*
X152579770Y-101048631D01*
X152579769Y-101048632D01*
X152513447Y-101092947D01*
X152469132Y-101159269D01*
X152469131Y-101159270D01*
X152457500Y-101217747D01*
X151842499Y-101217747D01*
X151830868Y-101159270D01*
X151830867Y-101159269D01*
X151786552Y-101092947D01*
X151720230Y-101048632D01*
X151720229Y-101048631D01*
X151661752Y-101037000D01*
X151661748Y-101037000D01*
X151649465Y-101037000D01*
X151582426Y-101017315D01*
X151536671Y-100964511D01*
X151526727Y-100895353D01*
X151555752Y-100831797D01*
X151561784Y-100825319D01*
X152110493Y-100276610D01*
X152860489Y-99526614D01*
X152919799Y-99423887D01*
X152936786Y-99360489D01*
X152950500Y-99309309D01*
X152950500Y-94190691D01*
X152919799Y-94076114D01*
X152889645Y-94023886D01*
X152860489Y-93973386D01*
X150026614Y-91139511D01*
X149975250Y-91109856D01*
X149923888Y-91080201D01*
X149911780Y-91076957D01*
X149899673Y-91073713D01*
X149899670Y-91073712D01*
X149861478Y-91063478D01*
X149809309Y-91049500D01*
X149809308Y-91049500D01*
X142987965Y-91049500D01*
X142920926Y-91029815D01*
X142900284Y-91013181D01*
X142486819Y-90599716D01*
X142453334Y-90538393D01*
X142450500Y-90512035D01*
X142450500Y-90134986D01*
X142470185Y-90067947D01*
X142475258Y-90060732D01*
X142475498Y-90060315D01*
X142475500Y-90060314D01*
X142541392Y-89946186D01*
X142575500Y-89818892D01*
X142575500Y-88287108D01*
X142541392Y-88159814D01*
X142541388Y-88159807D01*
X142538349Y-88152469D01*
X142536706Y-88150573D01*
X142525500Y-88099062D01*
X142525500Y-87489712D01*
X142545185Y-87422673D01*
X142597989Y-87376918D01*
X142667147Y-87366974D01*
X142718390Y-87386609D01*
X142721769Y-87388867D01*
X142721771Y-87388867D01*
X142721772Y-87388868D01*
X142721770Y-87388868D01*
X142780241Y-87400498D01*
X142780242Y-87400498D01*
X142780252Y-87400500D01*
X142780261Y-87400500D01*
X142782644Y-87400735D01*
X142783823Y-87401211D01*
X142786226Y-87401689D01*
X142786135Y-87402144D01*
X142847433Y-87426890D01*
X142887797Y-87483921D01*
X142894500Y-87524139D01*
X142894500Y-88099062D01*
X142892027Y-88108290D01*
X142893238Y-88116709D01*
X142884853Y-88135069D01*
X142880383Y-88151751D01*
X142881719Y-88152304D01*
X142878608Y-88159814D01*
X142844500Y-88287108D01*
X142844500Y-89818891D01*
X142878608Y-89946187D01*
X142900153Y-89983503D01*
X142944500Y-90060314D01*
X143037686Y-90153500D01*
X143151814Y-90219392D01*
X143279108Y-90253500D01*
X143279110Y-90253500D01*
X143410890Y-90253500D01*
X143410892Y-90253500D01*
X143538186Y-90219392D01*
X143652314Y-90153500D01*
X143745500Y-90060314D01*
X143811392Y-89946186D01*
X143845500Y-89818892D01*
X143845500Y-88287108D01*
X145384500Y-88287108D01*
X145384500Y-89818891D01*
X145418608Y-89946187D01*
X145440153Y-89983503D01*
X145484500Y-90060314D01*
X145577686Y-90153500D01*
X145691814Y-90219392D01*
X145819108Y-90253500D01*
X145819110Y-90253500D01*
X145950890Y-90253500D01*
X145950892Y-90253500D01*
X146078186Y-90219392D01*
X146192314Y-90153500D01*
X146285500Y-90060314D01*
X146351392Y-89946186D01*
X146385500Y-89818892D01*
X146385500Y-88287108D01*
X146654500Y-88287108D01*
X146654500Y-89818891D01*
X146688608Y-89946187D01*
X146710153Y-89983503D01*
X146754500Y-90060314D01*
X146847686Y-90153500D01*
X146961814Y-90219392D01*
X147089108Y-90253500D01*
X147089110Y-90253500D01*
X147220890Y-90253500D01*
X147220892Y-90253500D01*
X147348186Y-90219392D01*
X147462314Y-90153500D01*
X147555500Y-90060314D01*
X147621392Y-89946186D01*
X147655500Y-89818892D01*
X147655500Y-88287108D01*
X147924500Y-88287108D01*
X147924500Y-89818891D01*
X147958608Y-89946187D01*
X147980153Y-89983503D01*
X148024500Y-90060314D01*
X148117686Y-90153500D01*
X148231814Y-90219392D01*
X148359108Y-90253500D01*
X148359110Y-90253500D01*
X148490890Y-90253500D01*
X148490892Y-90253500D01*
X148618186Y-90219392D01*
X148732314Y-90153500D01*
X148825500Y-90060314D01*
X148891392Y-89946186D01*
X148925500Y-89818892D01*
X148925500Y-88287108D01*
X149194500Y-88287108D01*
X149194500Y-89818891D01*
X149228608Y-89946187D01*
X149250153Y-89983503D01*
X149294500Y-90060314D01*
X149387686Y-90153500D01*
X149501814Y-90219392D01*
X149629108Y-90253500D01*
X149629110Y-90253500D01*
X149760890Y-90253500D01*
X149760892Y-90253500D01*
X149888186Y-90219392D01*
X150002314Y-90153500D01*
X150095500Y-90060314D01*
X150161392Y-89946186D01*
X150195500Y-89818892D01*
X150195500Y-88287108D01*
X150161392Y-88159814D01*
X150095500Y-88045686D01*
X150002314Y-87952500D01*
X149945250Y-87919554D01*
X149888187Y-87886608D01*
X149824539Y-87869554D01*
X149760892Y-87852500D01*
X149629108Y-87852500D01*
X149501812Y-87886608D01*
X149387686Y-87952500D01*
X149387683Y-87952502D01*
X149294502Y-88045683D01*
X149294500Y-88045686D01*
X149228608Y-88159812D01*
X149194500Y-88287108D01*
X148925500Y-88287108D01*
X148891392Y-88159814D01*
X148825500Y-88045686D01*
X148732314Y-87952500D01*
X148675250Y-87919554D01*
X148618187Y-87886608D01*
X148554539Y-87869554D01*
X148490892Y-87852500D01*
X148359108Y-87852500D01*
X148231812Y-87886608D01*
X148117686Y-87952500D01*
X148117683Y-87952502D01*
X148024502Y-88045683D01*
X148024500Y-88045686D01*
X147958608Y-88159812D01*
X147924500Y-88287108D01*
X147655500Y-88287108D01*
X147621392Y-88159814D01*
X147555500Y-88045686D01*
X147462314Y-87952500D01*
X147405250Y-87919554D01*
X147348187Y-87886608D01*
X147284539Y-87869554D01*
X147220892Y-87852500D01*
X147089108Y-87852500D01*
X146961812Y-87886608D01*
X146847686Y-87952500D01*
X146847683Y-87952502D01*
X146754502Y-88045683D01*
X146754500Y-88045686D01*
X146688608Y-88159812D01*
X146654500Y-88287108D01*
X146385500Y-88287108D01*
X146351392Y-88159814D01*
X146285500Y-88045686D01*
X146192314Y-87952500D01*
X146135250Y-87919554D01*
X146078187Y-87886608D01*
X146014539Y-87869554D01*
X145950892Y-87852500D01*
X145819108Y-87852500D01*
X145691812Y-87886608D01*
X145577686Y-87952500D01*
X145577683Y-87952502D01*
X145484502Y-88045683D01*
X145484500Y-88045686D01*
X145418608Y-88159812D01*
X145384500Y-88287108D01*
X143845500Y-88287108D01*
X143811392Y-88159814D01*
X143804243Y-88147431D01*
X143800028Y-88132264D01*
X143800252Y-88116801D01*
X143795500Y-88099062D01*
X143795500Y-87524500D01*
X143815185Y-87457461D01*
X143867989Y-87411706D01*
X143919500Y-87400500D01*
X144019750Y-87400500D01*
X144019751Y-87400499D01*
X144034568Y-87397552D01*
X144078229Y-87388868D01*
X144078229Y-87388867D01*
X144078231Y-87388867D01*
X144144552Y-87344552D01*
X144188867Y-87278231D01*
X144188867Y-87278229D01*
X144188868Y-87278229D01*
X144200499Y-87219752D01*
X144200500Y-87219750D01*
X144200500Y-85780249D01*
X144200499Y-85780247D01*
X144188868Y-85721770D01*
X144188867Y-85721769D01*
X144144552Y-85655447D01*
X144078230Y-85611132D01*
X144078229Y-85611131D01*
X144019752Y-85599500D01*
X144019748Y-85599500D01*
X143907746Y-85599500D01*
X143840707Y-85579815D01*
X143794952Y-85527011D01*
X143787971Y-85507593D01*
X143764800Y-85421117D01*
X143764799Y-85421114D01*
X143764799Y-85421113D01*
X143705489Y-85318386D01*
X143026614Y-84639511D01*
X142975250Y-84609856D01*
X142923888Y-84580201D01*
X142911780Y-84576957D01*
X142899673Y-84573713D01*
X142899670Y-84573712D01*
X142861478Y-84563478D01*
X142809309Y-84549500D01*
X134190691Y-84549500D01*
X134121944Y-84567920D01*
X134076112Y-84580201D01*
X134076107Y-84580204D01*
X133973393Y-84639505D01*
X133973385Y-84639511D01*
X132889513Y-85723383D01*
X132889509Y-85723389D01*
X132830201Y-85826112D01*
X132830200Y-85826117D01*
X132799500Y-85940691D01*
X131750500Y-85940691D01*
X131750500Y-85815750D01*
X131714381Y-85449024D01*
X131688396Y-85318389D01*
X131642495Y-85087624D01*
X131642492Y-85087613D01*
X131642491Y-85087610D01*
X131642490Y-85087604D01*
X131535520Y-84734971D01*
X131394501Y-84394521D01*
X131220791Y-84069532D01*
X131016063Y-83763135D01*
X130782289Y-83478281D01*
X130782288Y-83478280D01*
X130782284Y-83478275D01*
X130716190Y-83412181D01*
X130682705Y-83350858D01*
X130687689Y-83281166D01*
X130729561Y-83225233D01*
X130795025Y-83200816D01*
X130803871Y-83200500D01*
X154196129Y-83200500D01*
X154217374Y-83206738D01*
G37*
%TD.AperFunction*%
%TD*%
M02*
